# Blender 4.0.2
# www.blender.org
mtllib Bunny.mtl
o stanford-bunny
v -6.030259 10.632708 1.850361
v -2.051891 8.724586 0.074912
v -1.638055 12.438953 -1.426287
v 1.191446 8.314075 2.469924
v 0.824795 8.699066 2.290754
v -0.892997 11.366261 -0.957218
v -5.791620 7.737209 0.076911
v -3.005325 12.039076 -0.276478
v -5.437425 11.809579 -2.187850
v -2.594486 11.937703 0.078981
v 0.787939 2.528518 3.126022
v -4.068755 2.806083 3.245760
v -3.380259 2.551910 3.206970
v -3.508965 11.285198 0.509890
v -1.477888 11.071755 -0.363155
v -3.934529 10.883796 0.895130
v -3.614813 2.988070 3.166846
v -2.066952 2.522487 3.679051
v -0.005639 3.125362 3.254006
v -3.250262 11.651471 -0.483528
v -4.170485 3.189317 2.962848
v -2.691649 3.090119 2.874270
v -1.994651 2.800416 3.747035
v -1.515000 3.187247 3.708777
v -3.527465 3.480687 2.614284
v -2.920666 3.522835 2.751115
v 2.506508 7.856669 1.701698
v -1.761960 12.747854 -0.640239
v -0.915546 3.349325 3.370134
v 0.512108 3.227257 3.366636
v 0.740113 3.592711 3.529252
v -2.513558 7.777798 2.516245
v -5.583319 9.629186 3.465360
v -1.956529 3.376565 3.340304
v -0.055598 3.702378 3.800388
v -1.405539 3.561459 3.230447
v -4.316905 11.151119 -1.605249
v 2.376122 3.321001 2.183291
v -5.986930 8.808644 -0.224993
v -4.541693 10.718984 -0.158957
v -2.200736 3.689661 2.574973
v -1.186550 3.854198 3.517157
v -5.169908 9.489202 3.555463
v -5.441371 10.340166 -0.288143
v -6.193759 8.222817 0.114694
v -2.615867 8.648249 1.803632
v -3.414928 3.727691 2.503127
v -0.657078 4.202013 3.854644
v 0.768974 4.100239 3.658935
v -5.578320 8.940778 3.712483
v -4.235674 10.352081 2.567191
v -4.379856 10.709615 2.391699
v -4.829274 11.212990 -0.600091
v -3.018757 8.939089 1.178002
v -1.387007 4.473800 3.456801
v -2.095725 12.434383 -0.337758
v 3.183854 3.800476 2.281191
v -3.102840 4.726347 2.870643
v -5.511713 12.254066 -3.347376
v 0.091312 4.050993 3.811255
v 2.744916 4.047460 2.183090
v -6.307063 7.893822 2.713479
v -0.712175 8.487152 2.544532
v -4.852274 10.963190 1.566586
v -1.934904 4.545296 2.679271
v -2.158124 8.319666 2.113611
v -1.745522 8.540853 1.859679
v 3.556526 4.506884 2.043037
v 3.665675 4.128617 2.070993
v -2.623468 4.595763 2.915076
v -1.089526 4.520240 3.736527
v 0.333994 4.302541 3.935298
v 2.895046 7.311891 0.237330
v -4.375682 10.417060 -0.269935
v -0.205783 4.830391 3.990321
v -4.913564 4.381406 1.344059
v 3.040001 5.924926 1.894700
v 0.737938 9.065433 1.728829
v -2.381811 5.929679 -1.757039
v -1.002702 5.251218 3.919380
v 0.928351 5.391722 3.830100
v -4.246825 8.465316 -0.623653
v -6.246075 7.001001 1.228956
v 3.093540 4.817704 1.769644
v 3.889563 4.870704 1.639515
v -5.175634 8.154339 3.684427
v -5.256923 10.252748 3.015672
v -4.109433 10.412363 -0.076475
v 1.756445 8.635040 1.621749
v -0.269438 9.139972 0.183600
v -0.234893 5.179090 4.123153
v -5.973111 7.639060 1.492840
v -3.390161 5.273685 2.991107
v -2.230883 5.805511 2.939155
v -2.639036 5.698206 3.047490
v -0.603606 5.547529 4.058012
v 0.934584 6.383792 3.680809
v -5.154663 6.903979 -0.967269
v -1.260460 5.770148 4.022082
v -0.083545 5.550684 4.039980
v -0.639863 6.863282 3.652986
v -3.967532 5.627465 3.097804
v -2.935627 5.911402 2.984900
v 0.452543 9.239552 0.929049
v -6.540778 8.104732 1.051030
v -4.264557 5.209798 2.886130
v -3.461525 6.038634 3.185570
v 1.040654 5.903428 3.687508
v 0.455610 6.023438 3.971624
v -4.660187 6.021166 3.088898
v -6.224656 6.918937 0.576167
v -1.699139 5.771925 3.845349
v 0.164485 7.973498 2.900546
v -2.090478 6.170174 3.081168
v -4.714781 8.235632 3.620052
v 3.190655 6.400965 0.376276
v -0.693737 6.477643 3.953821
v -3.444009 8.291218 2.204993
v -4.293766 6.407133 3.178619
v -3.784681 6.388988 3.133939
v 1.139287 6.743674 3.358614
v -5.869286 6.427240 -0.370151
v -2.640503 6.423827 3.063763
v -4.922426 10.903173 0.121359
v -0.024529 6.661973 3.825500
v -4.984868 6.511899 2.941578
v -3.380225 6.810299 3.055547
v -0.600798 11.898477 -1.725000
v -1.733724 6.667035 3.149347
v -4.173038 7.226334 2.929818
v -6.642104 8.673317 1.464033
v -5.030152 11.760123 -1.556123
v -3.090750 7.390605 2.870222
v -2.893723 6.967146 2.918423
v -2.093750 6.988166 3.045625
v 0.432468 6.986686 3.341403
v 0.883558 7.176588 3.280401
v -1.965112 8.759027 1.159045
v -1.370532 7.663410 2.894890
v -0.984294 7.062884 3.081841
v -5.023796 5.144099 2.516385
v -5.480920 10.712325 2.295071
v -5.192831 7.309941 2.589620
v 1.418634 7.061333 3.218002
v -2.020523 8.787533 0.587323
v -0.116234 7.105982 3.101729
v -0.622835 7.541673 3.055610
v -3.581146 7.753023 2.627095
v 1.241637 7.523474 2.896417
v 0.593613 7.500525 2.883286
v -3.866790 8.030500 2.457013
v -4.493457 7.798527 2.626514
v -1.908890 6.675867 -1.732807
v -3.224768 10.928959 0.565832
v -3.909503 6.734541 -1.529184
v -5.320105 6.288752 -1.012130
v -4.950242 9.847543 -0.540313
v -1.576847 12.050565 -1.445670
v -3.811353 10.482696 -0.155451
v 1.123382 2.479268 2.945879
v 1.713849 8.254292 2.281233
v -1.676234 2.571906 3.807122
v 1.451244 2.761399 2.950245
v -4.511765 10.215117 2.740589
v -2.136847 10.790023 -0.414003
v -0.065401 7.823895 -1.402322
v -3.938745 2.463503 3.246089
v -0.861220 12.198756 -1.463792
v 0.962037 3.162435 3.109305
v -4.284612 6.604634 -1.343419
v -2.830797 6.416564 -1.607301
v -3.916895 8.698655 2.762354
v 1.971639 3.240587 2.547793
v -4.407389 7.258667 -1.229767
v -2.263981 11.105382 -0.883216
v -6.013999 5.584040 0.993848
v -4.700250 8.562120 3.658984
v 3.003670 3.311258 2.169503
v 3.539184 3.231638 1.557465
v -2.624809 10.605717 0.122099
v 1.973915 6.637507 3.072165
v -4.457428 9.186686 2.891184
v -2.670281 11.027020 0.339557
v -2.581009 11.440770 -0.086207
v -3.424681 10.501088 0.766280
v 2.018547 3.710001 2.692164
v -4.606352 12.083495 -3.187184
v 1.404897 3.965352 3.370846
v 3.871965 3.808872 1.764499
v -3.249549 8.973544 1.781715
v -1.911236 6.176231 -2.439576
v -1.850526 11.176154 -0.031885
v -1.292552 13.102702 -1.267688
v -4.267622 8.523537 2.987793
v 2.486198 4.327449 2.661390
v -3.485293 8.999402 2.198508
v 2.816032 7.019750 1.909469
v 4.128717 4.517944 1.572064
v -3.831409 9.800679 2.062869
v -0.829755 11.664632 -1.066522
v -1.280148 12.587508 -1.237722
v -4.373179 9.641396 2.538886
v 1.418466 4.485923 3.364727
v 2.287418 6.983148 2.644011
v 1.860076 4.903334 3.050078
v 2.414072 4.989635 2.737192
v -1.245745 11.308288 -0.495269
v 2.947383 6.295887 -0.546041
v 2.567445 5.865999 -1.168647
v 2.262391 6.552455 -1.187243
v 2.039045 5.530641 3.141810
v -6.246957 9.613602 1.921320
v -6.398548 9.434885 1.336143
v 3.302016 5.186267 1.013223
v 1.500457 5.652641 3.538674
v 2.403851 6.242382 2.861995
v -5.647088 7.777198 3.125824
v -4.411532 11.365366 -4.111385
v -3.464893 10.107346 0.658724
v -6.472005 8.447475 2.049723
v -5.381920 10.784727 -0.460693
v -6.518698 8.475697 2.891559
v -3.591623 10.626894 0.902578
v -5.320753 10.541743 -0.760659
v 1.442786 2.480534 -0.182358
v 1.168095 2.447366 -1.091945
v 3.106027 6.521752 1.469340
v 2.601117 2.786454 -0.071533
v 1.514039 2.452528 0.022132
v 3.314801 2.944511 0.791097
v 0.855223 2.584645 -1.579252
v -4.324841 12.358669 -4.261693
v -0.691121 12.579083 -2.036510
v 3.097872 3.403986 -0.380940
v -4.440386 10.530066 -1.983796
v 3.573019 3.217575 0.251257
v 1.480454 3.159457 -1.420484
v -3.320080 9.496515 0.977469
v 1.737975 7.028876 -1.360004
v -1.495336 8.079926 -1.125533
v 4.044086 3.633173 1.323916
v 2.172315 3.386061 -0.494337
v 1.925287 3.481436 -1.298921
v -0.865058 6.970062 -1.715883
v -4.376747 11.640445 -3.198189
v -4.379261 10.350753 -0.868970
v 3.959383 3.592071 0.395309
v 3.629194 3.754441 -0.204483
v -4.816738 2.367159 -0.396203
v -2.260498 8.526042 -0.541981
v 4.267890 4.229729 0.821299
v -5.269845 4.948623 1.928125
v -4.440444 10.913463 -2.823972
v 2.345965 3.966728 -0.887135
v -1.470639 6.537594 -2.403589
v -6.033401 7.655590 0.635487
v 4.101136 4.363577 0.220248
v 1.451035 3.825866 -1.879343
v 2.217910 4.410736 -1.290379
v -5.779365 5.569801 1.917146
v 2.821032 4.814721 -0.658029
v -5.729500 10.551637 0.169787
v -5.259199 12.635770 -3.635729
v 4.197444 4.900733 1.016495
v -6.414128 9.020158 2.249531
v -3.556378 9.626298 0.079585
v 1.904484 4.619265 -1.514457
v -4.450960 2.549399 3.018868
v -2.896114 8.722857 -0.649452
v -5.106969 11.459025 -2.783292
v -3.476422 10.020176 0.184557
v 2.230308 5.248775 -1.360322
v 3.063158 5.694232 -0.254732
v 3.309435 5.050315 0.412115
v -6.405302 9.898486 1.180209
v -4.933600 12.410941 -3.948629
v -5.051516 8.044551 -0.544212
v -2.770811 3.138606 -1.639447
v -4.624262 12.656039 -3.990149
v -0.447377 9.082532 1.744671
v -3.896231 10.714302 1.970064
v -6.162858 10.702115 1.245714
v -3.080727 8.630452 1.736466
v -5.189657 10.854672 0.088754
v -3.054856 9.076655 0.644161
v -6.142972 9.877030 0.708156
v -5.474538 11.148496 -1.514198
v -1.724906 12.726429 -1.238132
v -4.246825 10.909844 0.420689
v -6.236201 6.463786 1.559853
v 3.978514 4.874461 0.294331
v 2.152441 7.884714 -0.566572
v -6.365766 8.129043 1.939796
v -5.149553 12.198515 -2.743175
v 2.268289 8.229996 0.401981
v -5.021917 10.104930 -1.082582
v 3.847883 5.071929 0.578742
v -6.243349 10.111684 2.220303
v 1.471233 8.754248 0.051529
v 3.446854 5.141266 1.035485
v -4.277374 10.779723 0.153001
v -4.654369 11.621339 -1.624789
v 3.749301 5.111552 1.397528
v 0.661576 9.012444 -0.157181
v -5.876567 7.016504 -0.239659
v 1.376876 8.931745 0.719889
v -1.526114 6.474270 3.648523
v -4.303752 2.373263 1.231050
v -4.447279 2.443141 1.638563
v -4.683205 2.485961 2.303908
v 1.162207 6.615355 -1.725158
v -2.797791 11.281311 -0.845951
v -5.225068 8.895268 -0.585587
v -5.054592 2.455285 0.584259
v -4.363128 2.535700 1.392390
v -4.588239 2.785108 1.938389
v -2.743279 2.488698 2.990661
v -5.057748 2.575214 0.112487
v -4.875881 3.022609 0.473977
v -2.346186 2.966384 3.421577
v -5.982640 6.919212 1.977257
v -4.786479 3.006042 0.035407
v 1.848912 6.115225 -1.593769
v -5.601097 5.787457 2.389124
v -4.057312 3.411617 0.489338
v -5.621822 8.300288 3.455128
v -3.555621 3.273241 1.244595
v -6.023360 9.991138 2.801483
v -3.879776 3.863730 0.587499
v -3.500854 3.697558 1.112129
v -1.929346 3.740200 2.599431
v -6.095346 8.158720 3.332147
v -5.923805 9.166124 3.479437
v -6.331142 9.047530 2.905882
v -3.657222 3.930687 1.092427
v -3.756918 4.084222 1.595393
v -3.634761 3.788025 1.784744
v 1.167824 7.388541 -1.315860
v -5.220752 10.462232 -2.008938
v -1.804411 7.364866 -1.606828
v -0.722251 12.250594 -2.032779
v -3.127299 2.780011 -1.435659
v -4.196995 2.869176 1.575338
v -3.000242 2.386201 -1.922343
v -4.585285 2.793711 -0.451496
v -5.040680 10.514993 -2.928368
v -6.277318 9.330378 0.368026
v -5.422536 10.709726 -0.031084
v -3.669800 8.889890 -0.366399
v -4.960551 10.996594 -3.181425
v -4.420174 3.173928 2.531572
v -3.709696 3.461045 1.923191
v -4.017391 3.352745 -0.198648
v -6.401665 10.344541 1.516706
v -2.314672 3.051693 -2.014560
v -2.627554 3.446344 -0.825022
v -5.524751 11.601018 -2.385327
v -2.054702 3.520182 -1.537160
v 3.140154 4.781327 0.081139
v -4.704474 11.135185 -3.924148
v -0.359390 7.813798 -1.479986
v -2.313953 3.628923 -0.732017
v -3.824838 4.105128 -0.452550
v -1.979206 4.181762 -1.818086
v -4.001796 4.019876 0.351124
v 1.482146 8.346810 -0.631252
v -2.239963 4.217551 -1.116764
v -2.320712 3.973526 -0.763198
v -4.019487 4.199530 -0.206765
v -4.291280 11.995267 -4.354821
v -0.897341 12.776263 -2.015112
v 0.377624 6.993565 -1.563321
v -3.314920 8.402845 -0.944525
v -2.452462 7.599658 -1.376631
v -1.216780 8.638370 -0.455932
v -1.694122 4.645924 -2.471434
v 1.192287 7.158894 -1.519154
v -5.531126 5.195645 -0.252405
v -5.782359 5.263523 0.301398
v -0.103803 6.683817 -2.278407
v -6.343229 10.443734 0.929310
v 0.254400 8.065768 -1.330133
v -2.213614 5.423841 -2.243748
v -5.569738 5.783527 -0.582317
v -6.001712 5.874072 1.599465
v -6.031542 6.035761 -0.024325
v -1.898667 5.725455 -2.585258
v -6.091118 5.877755 0.531637
v -5.178617 10.019156 -0.496966
v -5.644501 9.648598 -0.215627
v -0.956940 7.533485 -1.516802
v -6.265301 6.232096 0.886744
v 0.646497 6.300986 -2.222902
v 2.704171 3.976665 -0.396271
v -1.162250 13.077710 -1.619431
v 0.954059 8.356911 -0.965084
v -0.329118 8.583321 -0.780970
v -3.774216 7.839226 -1.221134
v -2.435776 2.415745 -2.169420
v 2.440391 7.244193 -0.784638
v -3.227138 3.075030 -0.791306
v -3.565947 7.498701 -1.363223
v -4.476793 2.360486 -0.588170
v -0.540058 8.809299 -0.516940
v -4.675713 12.637739 -4.153563
v -3.777806 10.151743 -0.036439
v -1.378132 3.196784 -1.958982
v -3.397538 2.368078 -0.963349
v -3.306925 9.043843 -0.010199
v -0.386887 2.390199 -1.676451
v 0.278849 3.029038 -1.719837
v -4.472258 9.838846 -0.535389
v -0.552304 3.219039 -2.048875
v 0.341573 3.431448 -2.033937
v 0.947699 3.305465 -1.791993
v -0.719517 3.734113 -2.320379
v -1.777557 3.372252 -1.825469
v 3.494193 4.128387 -0.351603
v 0.541371 3.817608 -2.130331
v 0.358429 4.369601 -2.273002
v -3.203689 4.103392 -0.837332
v -3.604077 3.686015 -0.561265
v -0.665797 4.473127 -2.516012
v 1.396268 4.533937 -1.951078
v -1.119135 4.530014 -2.623694
v -5.581830 4.965731 1.115201
v 0.724508 4.941768 -2.241778
v -4.537213 4.403451 -0.209556
v -1.175671 11.475949 -1.214489
v -3.632211 4.658658 -0.853718
v 0.564946 5.158506 -2.364908
v -0.664695 5.208872 -2.646827
v -2.517694 5.347784 -1.339023
v -3.076249 5.017350 -1.218166
v -3.265751 5.390668 -1.299788
v 1.728173 5.316756 -1.775921
v -1.600089 5.372801 -2.717108
v -4.773570 5.243277 -1.072741
v -1.231947 5.998847 -2.744053
v -3.876506 5.625463 -1.476055
v -0.137343 5.920437 -2.576548
v -2.511937 5.692304 -1.536517
v -4.927187 7.890426 3.426644
v -2.299604 2.346119 -2.024538
v 0.596634 2.411767 -1.070418
v -2.343258 2.366115 -1.503188
v 0.731206 2.422245 -0.862447
v -2.794025 2.394574 -0.960822
v 0.206268 2.658921 -0.939281
v -2.034214 2.691812 -1.226457
v 0.394471 2.723171 -0.586885
v 0.195100 2.399964 0.323694
v 1.013429 2.400275 0.120800
v 1.730672 2.415743 0.610455
v -2.776921 2.532180 -0.513784
v 1.048577 2.540067 0.236072
v 2.333338 2.484741 0.891529
v -2.664662 2.696302 -0.511557
v 0.660048 2.522128 0.316926
v -3.562946 2.344801 0.523696
v -2.880525 2.347825 -0.101593
v 0.435359 2.459387 0.458449
v 1.462853 2.515597 0.614943
v -0.273606 2.684635 0.695236
v 0.080325 2.423923 1.135686
v 0.344204 2.379797 0.641663
v -3.182850 2.350424 0.439249
v -2.321438 2.673678 -0.036764
v -2.245194 2.682638 -0.029477
v -1.948355 2.665499 0.549832
v 1.624346 2.449955 1.284370
v 1.557703 2.560831 0.978579
v -2.452389 2.371825 0.776528
v 0.567305 2.439003 1.269422
v 1.585962 2.515978 1.957457
v 2.208640 2.693913 1.800984
v -3.297301 2.488465 0.565627
v 0.930785 2.406945 1.500341
v 1.224307 2.425241 1.542863
v -2.745540 2.542834 0.755293
v -2.074650 2.330609 1.120430
v -3.556729 4.514274 2.445145
v -0.085122 2.685988 1.467052
v -5.073990 7.630061 2.749912
v -3.779438 2.341357 1.106550
v -3.724735 2.350971 0.979090
v -2.499812 2.512412 1.085203
v -2.020305 2.477769 1.214500
v -1.859815 2.641604 1.099492
v 0.811067 2.465841 2.035304
v 0.603600 2.699608 2.150126
v -2.579262 2.466494 1.614379
v -1.270693 2.745048 2.758797
v -5.374629 7.506877 2.480855
v -2.679572 2.480030 1.706642
v -4.403164 4.547450 2.141170
v -2.932685 2.356781 1.885800
v 0.628657 2.634758 2.373056
v 0.597015 2.442160 2.538557
v 0.367478 2.765497 2.328984
v -4.876605 4.291141 0.737732
v -2.435568 2.422195 2.424032
v -2.168929 2.673433 2.267307
v -0.792982 2.761151 2.719732
v -2.355948 2.404087 2.583987
v -0.889042 2.493921 3.530028
v -1.632400 2.741865 2.693131
v -1.152998 2.436896 3.057929
v -1.842617 2.426060 3.043145
v -4.718111 10.678982 -3.347607
v -4.518376 2.456734 2.795203
v -4.656951 10.172860 -1.363486
v -4.466424 9.996041 -0.585503
vn 0.4562 0.8200 0.3457
vn 0.7889 0.4561 0.4118
vn -0.2588 0.8963 0.3602
vn -0.1884 0.9817 -0.0291
vn -0.8188 -0.5740 -0.0083
vn 0.7420 0.5695 0.3536
vn 0.7930 0.5772 0.1951
vn 0.0637 0.9792 -0.1925
vn -0.0906 0.3359 0.9375
vn 0.0385 -0.5340 -0.8446
vn -0.0115 0.0622 -0.9980
vn 0.8726 0.4880 -0.0224
vn 0.2834 0.7838 0.5526
vn -0.9040 -0.4127 -0.1114
vn 0.0583 -0.0057 0.9983
vn 0.1360 0.1777 0.9746
vn -0.9465 -0.0848 -0.3114
vn 0.0182 0.5785 0.8154
vn 0.7085 -0.6896 -0.1498
vn 0.5707 -0.5653 -0.5956
vn 0.1587 -0.1239 0.9795
vn 0.8119 -0.2670 -0.5192
vn 0.9820 -0.0088 -0.1885
vn -0.6313 0.5904 -0.5029
vn -0.7756 -0.0279 -0.6307
vn -0.2751 0.3255 0.9046
vn 0.9487 0.3138 0.0388
vn -0.2748 0.3271 0.9041
vn 0.0940 -0.9140 0.3946
vn 0.6874 -0.5105 -0.5166
vn -0.3130 0.0771 0.9466
vn 0.2466 0.3886 0.8878
vn 0.2262 -0.1254 0.9660
vn 0.4987 0.4069 0.7653
vn -0.2341 0.9696 0.0710
vn -0.3750 -0.3927 0.8398
vn 0.2780 0.5481 0.7889
vn 0.9132 -0.0671 -0.4020
vn 0.2807 -0.2526 0.9260
vn 0.1871 -0.0991 0.9773
vn -0.7746 -0.4852 0.4057
vn 0.8006 0.5320 0.2757
vn -0.5118 -0.2885 -0.8092
vn -0.3762 -0.5597 -0.7383
vn 0.2149 -0.5058 0.8354
vn -0.9706 0.0639 0.2319
vn -0.2239 0.8854 0.4073
vn -0.1980 -0.3274 0.9239
vn -0.2647 0.3157 0.9112
vn 0.2236 0.6986 0.6797
vn 0.9508 0.3045 -0.0571
vn -0.0928 -0.1410 0.9856
vn 0.0535 0.4909 0.8696
vn 0.0297 0.1141 0.9930
vn -0.1774 0.6568 0.7330
vn 0.0848 -0.0675 0.9941
vn -0.0798 -0.4049 0.9109
vn 0.9743 -0.2242 0.0190
vn 0.2205 0.6126 0.7590
vn 0.0938 0.2766 0.9564
vn 0.9853 0.0566 0.1609
vn -0.0897 0.5760 0.8125
vn 0.0092 -0.9746 -0.2238
vn -0.0560 -0.5747 0.8165
vn -0.1653 -0.0071 0.9862
vn 0.2176 0.2286 0.9489
vn -0.0395 0.2193 0.9749
vn -0.0152 0.5111 0.8594
vn 0.3476 0.4622 0.8158
vn -0.0776 -0.6890 0.7206
vn 0.0810 0.4267 0.9008
vn -0.0401 0.7597 0.6490
vn 0.1014 0.2937 0.9505
vn 0.0298 -0.2437 0.9694
vn 0.0203 0.1640 0.9862
vn -0.0246 0.3310 0.9433
vn -0.0222 -0.6884 0.7250
vn 0.2484 0.6259 0.7393
vn -0.2244 0.4831 0.8463
vn -0.1555 0.9877 0.0186
vn -0.9936 0.0733 -0.0865
vn 0.3783 0.1149 0.9185
vn 0.5316 0.4347 0.7269
vn -0.1952 0.7472 0.6353
vn 0.5068 -0.0092 -0.8620
vn 0.1813 -0.1197 0.9761
vn 0.3044 -0.2079 0.9296
vn 0.2041 0.2040 0.9575
vn -0.1727 0.3768 0.9101
vn -0.2462 -0.0585 0.9674
vn 0.0486 0.6009 0.7978
vn 0.2118 0.3143 0.9254
vn 0.2407 0.3814 0.8925
vn -0.1231 -0.1165 0.9855
vn 0.2558 0.0506 0.9654
vn -0.0346 0.4728 0.8805
vn -0.2218 -0.0223 0.9748
vn -0.3739 0.0731 0.9246
vn 0.3200 -0.3153 0.8934
vn 0.3645 0.2710 0.8909
vn -0.0070 0.6810 0.7322
vn -0.0898 0.0093 0.9959
vn -0.1591 0.1853 0.9697
vn -0.1491 0.4947 0.8562
vn 0.1725 0.5121 0.8414
vn 0.9142 0.3938 0.0960
vn 0.1477 0.3423 0.9279
vn 0.2797 -0.2203 0.9345
vn 0.3053 0.2434 0.9206
vn 0.2617 -0.0211 0.9649
vn 0.5948 0.7970 0.1045
vn 0.0463 0.2040 0.9779
vn -0.0833 0.4678 0.8799
vn -0.0709 -0.0855 0.9938
vn -0.9909 0.1207 -0.0590
vn -0.1360 0.1632 0.9772
vn 0.3033 -0.2076 0.9300
vn 0.3137 -0.1205 0.9418
vn -0.1684 -0.3007 0.9387
vn -0.0710 -0.0989 0.9926
vn -0.3289 0.8675 0.3732
vn 0.8405 -0.4929 -0.2250
vn -0.2401 0.4493 0.8605
vn -0.1763 0.6590 0.7312
vn 0.1689 0.2710 0.9477
vn 0.0721 0.7171 0.6932
vn -0.2952 0.5639 0.7713
vn 0.2104 0.1557 0.9651
vn -0.3838 0.5494 0.7422
vn 0.9590 0.1672 -0.2288
vn 0.7590 -0.2151 0.6146
vn -0.1735 0.6973 0.6955
vn -0.1496 0.7951 0.5878
vn -0.0439 0.2622 0.9640
vn 0.1270 0.0265 0.9916
vn 0.7648 -0.1726 0.6207
vn 0.0194 0.8389 0.5440
vn 0.9824 -0.0888 -0.1641
vn 0.2832 0.9482 -0.1437
vn 0.1501 0.7617 0.6303
vn -0.8271 0.5619 0.0126
vn -0.0127 0.8041 0.5943
vn 0.3433 0.9186 -0.1955
vn -0.3294 0.9423 0.0601
vn -0.3966 0.2878 -0.8717
vn 0.0442 0.6189 0.7842
vn 0.2305 0.2139 0.9493
vn 0.3685 -0.2926 0.8824
vn 0.0169 0.9782 0.2069
vn -0.3471 0.3616 0.8653
vn -0.3264 0.3288 0.8862
vn -0.1705 0.0868 0.9815
vn -0.0822 -0.2326 0.9691
vn -0.2737 0.6151 0.7394
vn -0.8586 0.1307 -0.4956
vn 0.3322 0.9393 0.0859
vn -0.1486 0.5191 0.8417
vn -0.4206 -0.4544 0.7852
vn -0.1399 -0.2587 0.9558
vn -0.1773 0.1868 0.9663
vn -0.2935 0.8108 0.5064
vn -0.2862 -0.4063 0.8678
vn -0.1989 -0.2155 0.9560
vn 0.0338 0.1051 0.9939
vn -0.0265 0.0747 0.9969
vn -0.2636 -0.0941 0.9600
vn -0.0172 0.1097 0.9938
vn -0.1133 0.4642 0.8785
vn -0.2707 -0.3623 0.8919
vn -0.0189 0.6166 0.7870
vn 0.9206 0.2628 -0.2887
vn -0.2655 -0.4142 0.8706
vn -0.0631 -0.1671 0.9839
vn 0.0475 -0.0511 0.9976
vn -0.0316 -0.4174 0.9082
vn 0.0327 0.2056 0.9781
vn -0.9647 0.2556 -0.0638
vn -0.2913 0.7769 0.5582
vn 0.9636 0.0591 -0.2609
vn 0.3313 0.1518 0.9312
vn 0.4800 -0.1489 0.8645
vn 0.7872 0.4840 -0.3823
vn -0.8110 0.1990 0.5501
vn 0.1903 0.6722 0.7155
vn -0.5651 -0.8099 -0.1571
vn 0.7076 0.4218 0.5669
vn -0.1289 0.9854 0.1109
vn 0.7062 0.1390 0.6942
vn 0.8335 -0.1019 0.5431
vn 0.7692 -0.1076 0.6299
vn 0.6464 -0.6349 0.4233
vn 0.6088 0.2701 0.7460
vn 0.8151 -0.4411 0.3756
vn 0.5649 -0.3512 0.7467
vn 0.8398 0.3030 0.4506
vn 0.5908 -0.5517 0.5887
vn 0.8084 0.3047 0.5036
vn 0.9303 0.1008 0.3526
vn 0.4609 0.2213 0.8594
vn 0.5764 -0.1436 0.8044
vn 0.5974 0.5995 0.5326
vn 0.4322 0.2499 0.8665
vn 0.1486 0.0574 0.9872
vn 0.0507 0.1185 0.9917
vn -0.8687 -0.2921 -0.4000
vn 0.4126 -0.0000 0.9109
vn 0.2183 -0.7678 -0.6024
vn 0.3946 -0.5053 0.7674
vn 0.4845 -0.5898 0.6461
vn 0.6777 -0.1597 0.7178
vn 0.6156 -0.2889 0.7332
vn 0.5003 0.4705 0.7269
vn 0.3750 0.6389 0.6717
vn 0.5492 0.4171 0.7242
vn 0.6035 0.0854 0.7928
vn 0.7391 -0.4411 0.5091
vn 0.6226 0.3843 0.6816
vn 0.7338 0.1712 0.6574
vn 0.6625 0.4663 0.5863
vn 0.5341 -0.1394 0.8338
vn 0.6154 -0.2890 0.7334
vn 0.7797 0.0512 0.6241
vn 0.8323 0.1142 0.5424
vn 0.5563 -0.0345 0.8303
vn 0.4832 0.0641 0.8732
vn 0.4841 -0.6709 -0.5617
vn 0.4047 0.2253 0.8863
vn 0.9502 -0.0924 0.2976
vn 0.6314 0.3086 0.7114
vn 0.1932 -0.7893 -0.5828
vn 0.4526 0.1123 0.8846
vn 0.5052 -0.2643 0.8216
vn 0.6229 -0.1870 0.7596
vn 0.4110 0.4169 0.8107
vn 0.8706 0.0552 0.4890
vn 0.8014 0.4185 0.4273
vn 0.7319 0.4065 0.5469
vn 0.3867 0.4361 0.8125
vn 0.6353 -0.2843 0.7180
vn 0.8480 0.1667 0.5030
vn 0.1484 -0.0147 0.9888
vn 0.4986 0.0836 0.8628
vn 0.5315 -0.2678 0.8036
vn -0.7117 -0.0410 0.7013
vn 0.6752 0.2402 0.6974
vn 0.8320 -0.0224 0.5543
vn 0.4812 -0.3013 0.8232
vn 0.5006 -0.4861 0.7163
vn 0.3965 -0.9158 -0.0637
vn 0.2344 0.7692 0.5945
vn 0.0106 -0.5226 0.8525
vn -0.0612 0.1731 0.9830
vn 0.8445 -0.4800 -0.2375
vn -0.9881 -0.1300 0.0823
vn 0.6828 0.7244 -0.0947
vn 0.1660 0.5416 0.8241
vn 0.3431 0.5735 0.7439
vn 0.4739 -0.2768 0.8359
vn 0.3368 0.0619 0.9395
vn 0.0098 -0.9992 0.0391
vn 0.9206 -0.2392 -0.3087
vn 0.6858 -0.0666 0.7247
vn 0.6706 -0.5608 0.4856
vn 0.9553 -0.1222 -0.2691
vn 0.8816 -0.2037 0.4257
vn 0.1451 -0.0969 0.9847
vn 0.6534 0.0486 0.7554
vn 0.8369 -0.4787 0.2653
vn -0.2387 0.2588 -0.9360
vn 0.8319 -0.0223 0.5544
vn 0.3550 -0.2503 0.9007
vn 0.7844 0.0548 0.6178
vn 0.5757 0.1534 0.8031
vn 0.3213 0.2745 0.9063
vn 0.7361 -0.1955 0.6480
vn 0.0128 -0.9998 -0.0154
vn 0.9263 0.2588 -0.2738
vn 0.5922 -0.4141 0.6913
vn -0.2347 0.7546 -0.6128
vn 0.4554 -0.8630 -0.2187
vn 0.2720 -0.0494 0.9610
vn 0.7677 -0.1833 0.6141
vn 0.3032 0.1569 0.9399
vn 0.7703 0.2884 0.5687
vn 0.5596 -0.3749 0.7392
vn 0.6212 -0.3055 0.7217
vn 0.4581 -0.2296 0.8587
vn 0.4802 -0.5845 0.6541
vn 0.2890 0.0141 0.9572
vn 0.1342 -0.8498 -0.5098
vn 0.8478 -0.1047 0.5199
vn 0.7244 -0.2976 0.6219
vn 0.5681 -0.8118 0.1354
vn 0.9933 0.0676 0.0941
vn -0.4948 -0.1597 0.8542
vn 0.5838 -0.0057 0.8119
vn 0.6153 0.2332 0.7530
vn 0.6662 -0.3380 0.6647
vn 0.7901 0.0561 0.6104
vn 0.4817 -0.1800 0.8577
vn 0.3854 0.1682 0.9073
vn 0.6430 -0.4564 0.6150
vn 0.7390 -0.1890 0.6467
vn 0.5180 0.0621 0.8531
vn 0.4384 -0.3744 0.8171
vn 0.4421 0.5116 0.7367
vn 0.8091 -0.5599 -0.1784
vn -0.9984 0.0419 -0.0380
vn 0.9857 -0.1533 -0.0700
vn 0.9858 -0.1485 -0.0779
vn -0.9506 -0.3096 -0.0220
vn 0.0394 -0.9981 0.0482
vn -0.5226 0.8239 -0.2194
vn -0.9404 0.3232 0.1054
vn 0.7220 -0.3394 -0.6030
vn -0.9553 0.0423 -0.2926
vn -0.7180 0.6559 0.2328
vn -0.9206 -0.3552 0.1621
vn -0.9615 0.1145 -0.2500
vn 0.8290 0.3200 0.4587
vn -0.3858 -0.7190 -0.5781
vn 0.7429 -0.0666 -0.6661
vn -0.7653 -0.5392 -0.3516
vn 0.7459 -0.0861 -0.6605
vn -0.8504 0.4822 0.2105
vn 0.2252 -0.8683 -0.4419
vn 0.8839 0.4554 0.1067
vn 0.7089 0.2096 -0.6735
vn 0.8168 -0.2915 -0.4978
vn -0.9380 0.0085 -0.3466
vn 0.2543 0.9199 -0.2985
vn 0.0549 0.7798 -0.6236
vn 0.7837 0.0674 -0.6175
vn 0.8717 -0.0673 -0.4854
vn -0.9456 0.3075 0.1067
vn -0.9771 -0.1042 0.1854
vn -0.2490 0.9035 -0.3489
vn 0.2706 0.2315 0.9345
vn -0.9338 0.3240 -0.1519
vn 0.8327 -0.4588 -0.3100
vn 0.9971 -0.0755 0.0024
vn -0.9494 0.1498 -0.2759
vn -0.6744 0.6740 0.3016
vn -0.9423 -0.2817 -0.1810
vn 0.6267 -0.7324 0.2661
vn -0.3971 0.8192 0.4138
vn 0.6119 -0.7413 -0.2757
vn 0.1061 0.5968 0.7954
vn -0.8653 -0.4962 0.0707
vn 0.7779 -0.2845 -0.5603
vn -0.8700 -0.1209 -0.4780
vn -0.2764 0.4229 -0.8630
vn 0.6866 -0.5369 -0.4902
vn -0.1882 0.2042 -0.9607
vn 0.0268 -0.3830 -0.9233
vn 0.7538 -0.6067 0.2523
vn -0.8307 -0.5567 0.0053
vn 0.6714 -0.6582 -0.3405
vn 0.9779 0.2002 -0.0606
vn -0.7223 -0.5673 -0.3955
vn 0.6340 -0.5355 -0.5579
vn 0.9957 -0.0924 -0.0101
vn -0.9795 -0.1162 0.1646
vn -0.7507 0.5581 0.3536
vn 0.6257 -0.2644 0.7339
vn 0.0788 -0.9584 0.2745
vn -0.5802 0.7468 -0.3251
vn 0.5451 -0.0777 -0.8348
vn 0.1718 -0.9139 -0.3678
vn 0.9833 -0.1811 0.0171
vn 0.9619 0.0157 0.2728
vn 0.9892 -0.1257 -0.0758
vn 0.6307 -0.7471 -0.2100
vn 0.8464 0.3519 -0.3998
vn -0.4279 -0.8454 0.3195
vn 0.9024 0.1793 0.3917
vn 0.7773 -0.2838 -0.5615
vn -0.8644 -0.1716 -0.4726
vn 0.9148 -0.3986 -0.0658
vn 0.9593 0.0951 0.2659
vn 0.9696 0.0614 0.2367
vn 0.9096 0.3788 0.1707
vn 0.4321 0.2843 0.8559
vn 0.2174 -0.5923 0.7758
vn -0.1045 -0.0014 -0.9945
vn 0.8763 0.3692 0.3094
vn 0.9581 -0.1585 0.2385
vn 0.7018 -0.7116 -0.0325
vn 0.9563 0.1053 0.2726
vn 0.6973 -0.7162 -0.0287
vn -0.6059 -0.3372 -0.7205
vn 0.9903 0.1238 0.0630
vn 0.6134 0.6939 0.3772
vn -0.6105 -0.7437 -0.2723
vn 0.7995 0.4974 0.3368
vn 0.6833 0.6672 -0.2967
vn 0.2628 0.5085 0.8200
vn 0.7573 0.5576 0.3399
vn 0.6373 0.7385 -0.2201
vn 0.4314 0.9021 0.0083
vn 0.6218 0.7050 0.3412
vn 0.1352 0.9903 -0.0316
vn -0.2518 0.9245 0.2862
vn 0.1945 0.8596 0.4725
vn -0.6482 -0.7608 0.0309
vn 0.2809 0.9543 0.1017
vn 0.0290 0.9750 -0.2202
vn -0.9275 0.3669 0.0723
vn -0.2971 0.7710 0.5633
vn 0.5518 0.5361 0.6389
vn 0.0043 -0.3039 -0.9527
vn 0.3545 0.8417 0.4072
vn -0.4838 0.1508 -0.8621
vn -0.4214 0.8748 -0.2391
vn -0.1018 0.8754 0.4725
vn 0.1663 0.9653 0.2015
vn -0.1942 0.9809 0.0140
vn -0.4419 0.8262 0.3496
vn -0.5351 0.7822 -0.3191
vn 0.4117 0.8675 0.2790
vn -0.0246 0.9516 0.3065
vn 0.3809 0.8347 0.3977
vn -0.9439 -0.2870 0.1635
vn -0.5974 0.7253 -0.3421
vn -0.1747 0.9841 -0.0324
vn 0.2600 0.9564 -0.1334
vn 0.8414 0.4279 0.3300
vn 0.1678 0.9573 0.2353
vn -0.9378 0.3218 0.1301
vn 0.0852 0.9964 -0.0014
vn 0.2703 0.9625 0.0218
vn 0.3226 0.4547 0.8302
vn -0.2305 0.9597 0.1607
vn -0.2125 0.8646 0.4553
vn 0.8671 0.4934 0.0685
vn 0.0828 0.1996 0.9764
vn 0.1649 0.9307 0.3265
vn -0.9245 0.2618 0.2771
vn -0.0460 0.8357 0.5473
vn 0.8267 0.5626 0.0101
vn 0.8007 0.5406 0.2582
vn -0.9551 0.2509 0.1574
vn -0.5399 0.7761 -0.3260
vn -0.2402 0.9627 0.1243
vn 0.8686 0.3865 0.3100
vn 0.6325 0.6524 0.4175
vn -0.3199 0.8119 0.4884
vn 0.1901 0.9805 -0.0499
vn 0.1928 0.9196 -0.3424
vn 0.7148 0.6959 0.0689
vn 0.7633 0.5742 -0.2960
vn 0.3007 0.8418 0.4483
vn 0.2532 0.9564 -0.1455
vn 0.8298 0.4983 0.2513
vn -0.2196 0.9699 -0.1057
vn -0.5544 0.7108 -0.4328
vn -0.2899 -0.1556 0.9443
vn 0.1910 0.9706 0.1462
vn 0.6182 0.7860 -0.0016
vn 0.3971 0.7835 0.4780
vn 0.3255 0.6358 0.6999
vn 0.6156 0.7161 -0.3289
vn 0.0161 0.9094 0.4157
vn 0.5842 0.8011 -0.1303
vn -0.9430 -0.3303 -0.0412
vn 0.3861 0.7989 0.4612
vn -0.4543 0.8771 0.1562
vn -0.1238 0.7408 0.6603
vn -0.0798 0.9931 -0.0861
vn -0.7114 0.4889 -0.5048
vn 0.3976 0.9081 0.1314
vn 0.3768 0.8850 0.2734
vn -0.8025 0.3912 0.4506
vn -0.5725 0.6443 0.5070
vn -0.2026 0.8820 0.4255
vn -0.5489 0.1365 -0.8247
vn -0.2720 -0.0124 0.9622
vn -0.8528 0.1316 0.5053
vn -0.6661 -0.0653 0.7430
vn -0.4965 0.7799 0.3812
vn -0.7398 0.4643 0.4870
vn -0.7514 0.3431 0.5636
vn -0.8176 -0.3365 0.4673
vn 0.1512 -0.8384 -0.5236
vn -0.8836 0.3896 0.2596
vn -0.3848 0.3094 0.8696
vn -0.4293 -0.0226 -0.9029
vn -0.3448 0.1602 -0.9249
vn -0.8185 -0.0623 0.5711
vn -0.7934 -0.2960 0.5319
vn -0.6384 0.3402 0.6904
vn -0.0534 0.2653 0.9627
vn 0.8374 -0.4517 -0.3077
vn 0.1226 -0.8080 -0.5763
vn -0.9376 0.3455 0.0392
vn -0.9318 -0.1843 0.3128
vn -0.5595 0.8238 0.0909
vn -0.4036 0.7093 0.5779
vn -0.0889 -0.9356 -0.3418
vn 0.5413 0.7258 -0.4245
vn -0.1315 -0.3619 0.9229
vn -0.7809 -0.1354 0.6098
vn -0.3340 0.9288 0.1602
vn -0.6999 -0.1586 0.6965
vn -0.6658 -0.1441 0.7320
vn 0.2688 -0.9373 -0.2220
vn -0.5178 -0.3067 0.7986
vn -0.6414 -0.2532 0.7242
vn -0.6878 0.0320 0.7252
vn -0.8457 0.4983 -0.1912
vn -0.6019 0.4624 0.6511
vn -0.9453 0.3146 0.0863
vn -0.5694 -0.0232 0.8217
vn 0.8342 0.3599 0.4179
vn -0.3519 -0.3451 0.8701
vn -0.6525 0.1569 0.7414
vn 0.5620 -0.7918 0.2393
vn -0.2109 0.8806 0.4245
vn -0.4027 0.6646 0.6293
vn -0.8619 -0.1191 0.4928
vn -0.8599 -0.3149 0.4017
vn -0.7299 0.3447 0.5903
vn -0.4187 0.5421 0.7286
vn -0.1927 -0.3945 -0.8984
vn -0.8824 -0.2004 0.4257
vn -0.8181 -0.0680 0.5711
vn -0.3799 0.7988 0.4665
vn -0.7204 0.5726 0.3914
vn -0.5602 0.6886 0.4605
vn -0.7309 0.2876 0.6190
vn -0.4984 0.7170 0.4873
vn -0.3533 -0.2419 -0.9037
vn -0.5698 -0.1336 0.8108
vn -0.1723 0.1409 -0.9749
vn -0.8137 0.1770 0.5536
vn -0.5011 0.7810 0.3727
vn -0.8010 0.1914 0.5672
vn -0.8605 0.3242 0.3930
vn -0.3522 0.7968 0.4909
vn -0.5201 -0.4369 0.7339
vn -0.5818 -0.0907 0.8083
vn -0.8127 0.2534 0.5248
vn -0.1358 0.7572 0.6389
vn -0.7140 0.0192 0.6999
vn -0.8028 0.3177 0.5045
vn -0.0724 0.6722 -0.7368
vn 0.2759 0.8002 -0.5324
vn -0.6618 0.0790 -0.7455
vn -0.4398 -0.3831 -0.8123
vn -0.7121 -0.0575 -0.6997
vn -0.9443 -0.0161 -0.3286
vn -0.9430 -0.1748 -0.2831
vn -0.4499 -0.6577 -0.6042
vn -0.9972 0.0434 -0.0603
vn -0.6349 -0.6352 -0.4398
vn -0.9800 0.0641 -0.1883
vn 0.0363 0.7462 -0.6647
vn -0.6270 -0.1982 -0.7533
vn -0.7939 0.1668 -0.5848
vn -0.5816 -0.7351 -0.3483
vn -0.7520 -0.3362 -0.5670
vn -0.9563 0.2334 0.1764
vn -0.8388 0.2060 -0.5039
vn -0.7017 -0.6181 -0.3545
vn -0.8361 -0.2036 -0.5095
vn -0.9019 -0.2822 -0.3269
vn -0.6198 0.7705 -0.1490
vn -0.9772 0.0628 -0.2030
vn 0.0866 0.7876 0.6101
vn 0.3188 -0.5163 0.7948
vn -0.9720 -0.1577 -0.1743
vn -0.7762 0.3590 0.5182
vn -0.9016 0.1042 -0.4199
vn -0.7539 -0.1820 -0.6313
vn -0.9293 -0.1718 -0.3268
vn -0.1459 -0.9752 0.1666
vn -0.7316 0.4238 -0.5340
vn -0.9372 -0.0401 -0.3464
vn -0.8358 -0.5482 -0.0320
vn -0.9605 0.2622 -0.0936
vn -0.9117 0.1687 -0.3745
vn -0.9031 -0.2851 -0.3212
vn -0.6498 0.2690 -0.7109
vn -0.3223 0.2105 -0.9229
vn -0.9632 0.2166 0.1594
vn -0.9784 0.1864 -0.0894
vn -0.9566 -0.0865 -0.2782
vn 0.4513 0.5571 -0.6971
vn -0.9100 -0.3689 0.1893
vn -0.9176 0.2879 -0.2740
vn -0.9527 -0.0459 -0.3006
vn -0.6201 0.7085 -0.3369
vn 0.4252 0.3898 -0.8169
vn -0.8893 -0.4419 -0.1176
vn -0.9603 -0.0002 0.2788
vn -0.4289 0.8666 -0.2551
vn 0.2984 0.5672 -0.7676
vn -0.6373 -0.2918 -0.7132
vn -0.6304 0.6975 -0.3407
vn -0.7556 0.5433 -0.3658
vn -0.9309 0.3384 0.1378
vn -0.6794 -0.6318 -0.3730
vn -0.9488 0.2784 -0.1489
vn -0.8718 -0.3290 -0.3629
vn -0.9695 -0.2449 0.0007
vn 0.2516 0.5777 0.7766
vn -0.1634 0.4628 -0.8713
vn -0.6723 0.2321 -0.7029
vn -0.8244 -0.4851 -0.2916
vn -0.9991 0.0068 0.0409
vn -0.6523 0.6341 -0.4153
vn -0.9059 0.2446 0.3457
vn -0.7670 -0.1514 -0.6235
vn 0.1347 0.5971 -0.7907
vn -0.0318 -0.9994 -0.0133
vn -0.9182 0.1954 0.3446
vn 0.1662 0.3524 -0.9210
vn -0.4742 0.6403 0.6042
vn -0.7962 -0.1802 -0.5775
vn -0.9721 0.0404 -0.2309
vn -0.7379 0.1372 -0.6608
vn -0.6829 0.3597 -0.6357
vn 0.0339 0.9085 -0.4164
vn -0.5191 -0.6793 -0.5188
vn -0.7946 -0.3360 -0.5057
vn -0.5601 0.0780 -0.8247
vn -0.4777 0.7157 -0.5095
vn -0.0362 0.1851 -0.9821
vn -0.9918 0.1032 -0.0757
vn -0.8988 0.2607 -0.3523
vn -0.1032 0.7134 -0.6931
vn -0.7732 0.3986 -0.4933
vn -0.6025 -0.1124 -0.7901
vn -0.8631 -0.4539 -0.2215
vn -0.7957 0.1729 -0.5805
vn -0.6268 0.1861 -0.7566
vn -0.9642 0.1816 -0.1930
vn -0.8803 -0.3069 -0.3617
vn -0.6398 0.4606 -0.6153
vn -0.7104 0.6614 -0.2404
vn -0.7283 0.6182 -0.2957
vn -0.6351 -0.7409 -0.2184
vn -0.9204 0.0736 -0.3839
vn -0.9950 0.0762 -0.0643
vn -0.4387 0.8902 -0.1231
vn -0.8991 0.2617 -0.3509
vn -0.8829 0.0404 -0.4679
vn -0.5108 -0.2904 0.8091
vn -0.4254 0.8993 -0.1016
vn 0.5500 0.7930 -0.2620
vn -0.0781 0.5797 -0.8111
vn -0.4265 0.8683 -0.2531
vn 0.4255 0.3668 -0.8273
vn 0.9134 -0.0849 -0.3982
vn 0.8857 -0.2464 -0.3935
vn 0.7094 0.2980 -0.6387
vn 0.6331 0.1320 -0.7627
vn 0.3517 0.6412 -0.6820
vn 0.4685 0.4423 -0.7648
vn 0.4705 0.4665 -0.7490
vn -0.1087 0.2373 -0.9653
vn 0.0295 -0.9966 0.0765
vn 0.3345 0.3178 -0.8872
vn -0.6169 -0.0861 -0.7823
vn 0.4408 0.1653 -0.8822
vn -0.0464 0.8635 -0.5022
vn -0.0285 0.9082 -0.4177
vn -0.0542 0.5311 -0.8456
vn -0.2652 -0.9642 -0.0057
vn 0.6923 -0.0337 -0.7209
vn 0.5855 0.5431 -0.6018
vn 0.3516 0.5829 -0.7325
vn 0.3406 0.7866 -0.5150
vn -0.1825 -0.9797 0.0831
vn -0.2320 -0.9627 0.1394
vn -0.2460 0.5612 -0.7903
vn 0.4719 0.6121 -0.6346
vn 0.0193 0.5402 -0.8413
vn 0.5703 0.2621 -0.7785
vn 0.0217 0.2326 -0.9723
vn -0.0798 0.9564 -0.2808
vn -0.0250 0.5656 -0.8243
vn 0.1709 0.6588 -0.7326
vn 0.4109 0.3968 -0.8208
vn 0.1155 0.2026 -0.9724
vn -0.3527 -0.2780 -0.8935
vn 0.4834 0.2600 -0.8359
vn 0.0470 0.4090 -0.9113
vn 0.6130 0.0849 -0.7855
vn 0.3903 -0.9199 0.0390
vn -0.1412 -0.6787 -0.7207
vn -0.0311 0.7739 -0.6325
vn 0.0497 0.7843 -0.6184
vn -0.1946 0.6880 -0.6991
vn -0.2318 0.5743 -0.7852
vn 0.3759 0.7984 -0.4704
vn 0.5720 0.3587 -0.7377
vn 0.5526 0.2238 -0.8028
vn 0.1287 0.8413 -0.5250
vn -0.2503 0.7922 -0.5566
vn 0.8947 0.4104 -0.1762
vn 0.0380 0.9026 -0.4288
vn -0.2590 0.9082 -0.3286
vn 0.6089 0.2551 -0.7511
vn -0.0875 0.7347 -0.6727
vn -0.1804 0.8858 -0.4276
vn 0.5421 0.3141 -0.7794
vn -0.6237 -0.1523 0.7667
vn -0.1624 -0.3484 -0.9232
vn -0.4107 -0.2307 0.8821
vn 0.3884 0.2962 -0.8726
vn -0.1521 0.6788 -0.7184
vn 0.0481 0.7218 0.6905
vn 0.2973 0.3825 -0.8748
vn -0.3225 0.7574 -0.5677
vn -0.0579 0.5263 -0.8483
vn 0.0827 0.7523 -0.6537
vn 0.3319 0.8595 -0.3888
vn -0.6399 0.7126 -0.2877
vn -0.0545 0.9319 0.3585
vn 0.4752 0.1268 -0.8707
vn 0.3104 0.6000 -0.7373
vn -0.0215 0.3554 -0.9345
vn -0.6488 0.3155 -0.6925
vn 0.0245 0.7443 0.6674
vn -0.4124 -0.1280 -0.9020
vn -0.4576 0.1735 -0.8721
vn -0.3087 0.6342 -0.7088
vn 0.4228 -0.1955 -0.8849
vn -0.2224 0.2565 -0.9406
vn 0.1221 -0.0266 -0.9922
vn 0.0295 0.1378 -0.9900
vn -0.6734 0.2969 -0.6770
vn 0.3328 0.1148 -0.9360
vn -0.4376 0.1882 -0.8793
vn 0.2273 -0.5762 -0.7851
vn 0.1971 0.1547 -0.9681
vn 0.0704 -0.0885 -0.9936
vn -0.5140 0.3963 -0.7608
vn -0.8018 -0.1417 -0.5805
vn 0.0327 0.3377 -0.9407
vn -0.3584 -0.1338 -0.9239
vn 0.1188 -0.4077 -0.9054
vn -0.2074 -0.4446 -0.8714
vn -0.6618 -0.3995 -0.6344
vn -0.2723 -0.7003 -0.6599
vn 0.8016 0.2145 -0.5581
vn 0.2289 -0.9689 -0.0936
vn 0.6235 -0.0309 -0.7812
vn -0.4842 -0.3967 -0.7799
vn 0.6586 -0.1609 -0.7351
vn -0.4528 0.3458 -0.8218
vn 0.6273 -0.0930 -0.7732
vn -0.0134 0.1955 -0.9806
vn 0.5302 -0.4648 -0.7091
vn 0.4118 0.0292 -0.9108
vn -0.0699 -0.9945 -0.0778
vn -0.3720 0.4180 -0.8288
vn 0.3939 -0.5094 -0.7651
vn -0.3158 -0.2938 -0.9022
vn -0.0655 -0.2609 -0.9631
vn 0.6419 0.0770 -0.7629
vn -0.1992 0.2353 -0.9513
vn -0.3918 -0.3277 -0.8597
vn 0.4874 -0.3041 -0.8185
vn -0.6971 0.4597 -0.5502
vn -0.5487 -0.8343 -0.0529
vn -0.1296 -0.5596 -0.8185
vn 0.2483 -0.3891 -0.8871
vn 0.2658 -0.0768 -0.9610
vn -0.2886 0.2915 -0.9120
vn -0.5077 -0.3595 -0.7829
vn 0.4417 0.0796 -0.8936
vn 0.0143 -0.2847 -0.9585
vn 0.3134 -0.1389 -0.9394
vn 0.3145 -0.1501 -0.9373
vn 0.4630 -0.1550 -0.8727
vn 0.0205 -0.3870 -0.9219
vn 0.2785 -0.3658 -0.8881
vn -0.3684 0.0916 -0.9251
vn -0.6728 -0.3594 -0.6466
vn 0.1750 -0.6226 -0.7627
vn 0.1620 0.2705 -0.9490
vn 0.1177 0.1380 -0.9834
vn -0.2156 -0.1666 -0.9622
vn 0.0101 -0.2471 -0.9689
vn 0.3738 0.0881 -0.9233
vn 0.1927 -0.3736 -0.9074
vn -0.0921 0.6545 -0.7504
vn -0.5938 0.0598 -0.8024
vn 0.2214 -0.0887 -0.9711
vn 0.2456 -0.1701 -0.9543
vn 0.2203 -0.0672 -0.9731
vn 0.2336 0.3037 -0.9237
vn 0.1867 -0.2457 -0.9512
vn 0.1388 -0.3379 -0.9309
vn 0.0111 0.0443 -0.9990
vn 0.1178 -0.4329 -0.8937
vn 0.1973 -0.2643 -0.9441
vn -0.2756 -0.3367 -0.9004
vn 0.1608 -0.6227 -0.7657
vn -0.5259 -0.0569 -0.8487
vn -0.0913 0.3185 -0.9435
vn -0.3408 0.5016 -0.7952
vn 0.2072 -0.1716 -0.9631
vn 0.1133 -0.8498 -0.5148
vn -0.1921 0.1329 -0.9723
vn 0.1040 -0.1749 -0.9791
vn 0.1503 -0.0137 -0.9885
vn -0.0869 -0.0502 -0.9950
vn 0.2425 0.3437 -0.9072
vn 0.1914 -0.2642 -0.9453
vn 0.2202 -0.2927 -0.9305
vn -0.0251 -0.8919 -0.4516
vn 0.7696 -0.5994 0.2200
vn 0.1489 0.0642 -0.9868
vn -0.9444 -0.0155 -0.3285
vn -0.5883 0.3108 -0.7465
vn 0.7347 -0.6408 0.2228
vn -0.0817 -0.4854 -0.8705
vn -0.4275 -0.0559 -0.9023
vn -0.0322 0.2259 -0.9736
vn -0.5851 -0.1205 -0.8020
vn 0.1824 -0.6535 0.7346
vn -0.5678 -0.1620 -0.8071
vn -0.2008 -0.3652 -0.9090
vn -0.3133 -0.4715 -0.8243
vn -0.3052 0.0018 -0.9523
vn -0.5582 -0.0466 -0.8284
vn -0.7239 0.3020 -0.6202
vn -0.2499 -0.7273 -0.6392
vn 0.0616 -0.0752 -0.9953
vn 0.0235 -0.9997 -0.0026
vn 0.0610 -0.0787 -0.9950
vn -0.7796 0.3563 -0.5151
vn -0.2971 -0.2710 -0.9156
vn -0.6825 0.3022 -0.6655
vn -0.8640 0.4912 -0.1107
vn -0.0361 0.5519 -0.8332
vn -0.0614 -0.5296 0.8460
vn -0.5782 -0.1931 -0.7927
vn -0.2770 0.1218 -0.9531
vn -0.3302 0.2819 -0.9008
vn -0.1202 -0.4417 -0.8891
vn -0.3240 -0.3490 -0.8793
vn -0.0660 -0.0619 -0.9959
vn -0.0648 -0.2444 -0.9675
vn -0.6373 0.2486 -0.7294
vn -0.1655 -0.9836 0.0713
vn 0.0802 -0.9967 -0.0128
vn 0.0217 -0.9978 0.0629
vn -0.1505 -0.9886 0.0079
vn 0.0168 -0.9490 0.3149
vn -0.1422 -0.9401 -0.3099
vn 0.4314 -0.8645 0.2580
vn -0.0765 -0.9882 0.1328
vn -0.7789 -0.5166 -0.3556
vn 0.1282 -0.9863 0.1041
vn 0.1624 -0.9549 -0.2486
vn -0.0052 -0.9890 0.1481
vn -0.3409 -0.9324 -0.1203
vn -0.4260 -0.8223 0.3774
vn 0.1696 -0.9777 -0.1236
vn -0.7375 -0.6703 -0.0823
vn 0.1434 -0.9892 0.0304
vn -0.9258 0.3220 0.1977
vn 0.1832 -0.6524 0.7354
vn -0.7164 -0.6750 0.1761
vn 0.0851 -0.9920 -0.0934
vn 0.1288 -0.7649 -0.6311
vn 0.0344 -0.9822 0.1849
vn 0.2537 -0.9669 -0.0259
vn 0.0841 -0.9944 0.0638
vn 0.1056 -0.9891 0.1030
vn -0.3286 -0.8950 0.3016
vn -0.6963 -0.7005 0.1563
vn 0.0713 -0.9846 -0.1597
vn -0.9888 -0.0064 -0.1490
vn 0.4039 -0.7927 0.4565
vn -0.6139 -0.7408 0.2728
vn -0.4219 -0.8758 -0.2343
vn 0.1353 -0.8625 0.4877
vn 0.0397 -0.9986 -0.0337
vn 0.1607 -0.7136 0.6818
vn 0.0597 -0.9963 -0.0615
vn -0.4878 -0.4791 0.7297
vn -0.0400 -0.9790 0.1999
vn -0.5131 -0.6920 0.5079
vn 0.0183 -0.9996 -0.0205
vn -0.8823 -0.4174 0.2178
vn 0.2692 -0.9379 -0.2190
vn -0.4327 -0.7657 0.4759
vn 0.2117 -0.5736 0.7913
vn -0.1106 -0.5965 0.7949
vn -0.7859 -0.4237 0.4504
vn 0.3495 -0.9104 -0.2216
vn 0.3721 -0.4450 0.8146
vn -0.0027 -0.9980 0.0632
vn 0.0154 -0.9988 -0.0459
vn -0.3175 -0.9149 0.2493
vn 0.0871 -0.9949 0.0502
vn -0.8210 -0.5345 0.2004
vn -0.0378 -0.9992 0.0110
vn -0.7461 -0.6071 0.2735
vn -0.6800 -0.0025 0.7332
vn 0.0231 -0.9185 0.3947
vn -0.7226 -0.6768 -0.1406
vn 0.0132 -0.9935 0.1126
vn -0.6700 -0.7391 0.0692
vn -0.0036 -0.9330 0.3598
vn 0.3996 -0.8907 0.2167
vn -0.1462 -0.7583 0.6353
vn -0.8016 -0.5807 -0.1423
vn -0.3552 -0.9049 -0.2345
vn -0.6860 -0.5544 0.4712
vn -0.6910 -0.5209 0.5012
vn -0.2785 0.8485 0.4499
vn 0.8874 -0.0892 -0.4523
vn 0.3242 -0.9112 0.2540
vn -0.6844 -0.6855 0.2482
vn -0.0316 -0.9969 0.0721
vn -0.3922 -0.8791 -0.2707
vn -0.4515 -0.7957 0.4038
vn -0.9471 -0.0681 0.3137
vn 0.3218 -0.9050 0.2784
vn -0.4715 -0.7588 0.4493
vn -0.1367 -0.9875 0.0781
vn 0.6263 -0.5209 0.5800
vn 0.0017 -0.9999 -0.0155
vn -0.0188 -0.9998 0.0014
vn -0.3136 -0.9418 0.1211
vn -0.4225 -0.1595 0.8922
vn -0.1524 -0.9870 0.0517
vn -0.3391 -0.9186 0.2027
vn -0.4985 -0.6962 0.5165
vn -0.2885 -0.9573 0.0189
vn 0.6461 -0.7574 0.0946
vn -0.4598 -0.7635 0.4535
vn 0.8220 -0.5147 -0.2436
vn -0.0106 -0.9999 -0.0098
vn -0.0557 -0.9982 0.0213
vn -0.2883 -0.9303 0.2268
vn -0.3066 -0.8734 0.3783
vn -0.2656 -0.6944 0.6688
vn 0.3556 -0.6968 0.6229
vn -0.2666 -0.6964 0.6663
vn -0.9440 -0.0179 -0.3294
vn -0.9397 -0.1009 -0.3267
vn 0.0178 -0.2288 0.9733
vn -0.0048 -0.9998 -0.0210
vn 0.7404 -0.6150 0.2714
vn 0.0116 -0.9998 -0.0144
vn -0.9419 0.0210 -0.3353
vn -0.2058 -0.8527 0.4801
vn -0.1042 -0.9311 -0.3495
vn 0.0439 -0.9990 -0.0007
vn -0.2322 -0.9725 0.0200
vn 0.4477 -0.8777 0.1709
vn -0.0445 -0.9967 0.0681
vn 0.1855 -0.5754 0.7965
vn -0.0418 -0.9990 0.0177
vn 0.0439 -0.9988 -0.0193
vn -0.1278 -0.9895 -0.0667
vn 0.9311 -0.3571 0.0743
vn -0.5210 0.4350 -0.7344
vn -0.0522 -0.9981 0.0339
vn -0.0269 -0.9984 0.0496
vn -0.5719 -0.0867 -0.8157
vn -0.5868 -0.7524 -0.2994
vn 0.4540 -0.7865 0.4186
vn 0.4523 -0.7952 0.4038
vn 0.8162 -0.5602 0.1412
vn 0.2311 0.0997 0.9678
vn -0.3366 -0.8297 0.4452
vn 0.0625 -0.9980 0.0098
vn 0.0238 -0.9940 0.1068
vn -0.1550 -0.7339 0.6613
vn -0.1211 -0.9658 0.2292
vn 0.1726 -0.9849 -0.0162
vn -0.5029 -0.4291 0.7503
vn -0.0336 -0.9992 -0.0233
vn 0.4038 -0.8990 -0.1694
vn -0.4085 -0.8877 -0.2123
vn 0.0403 -0.9958 0.0825
vn 0.1155 -0.9932 0.0127
vn 0.0215 -0.9996 0.0168
vn -0.3503 -0.5023 0.7905
vn -0.7677 -0.5322 -0.3570
vn -0.0027 -0.9990 0.0452
vn -0.1097 -0.5811 0.8064
vn -0.0760 -0.9895 0.1232
vn -0.4973 -0.8158 0.2952
vn -0.9074 -0.0863 0.4114
s 0
f 263//1 294//1 187//1
f 264//2 85//2 198//2
f 138//3 66//3 67//3
f 284//4 282//4 64//4
f 176//5 379//5 426//5
f 302//6 53//6 74//6
f 37//7 187//7 302//7
f 90//8 104//8 304//8
f 43//9 33//9 50//9
f 430//10 440//10 435//10
f 82//11 313//11 412//11
f 53//12 40//12 74//12
f 279//13 263//13 187//13
f 379//14 176//14 388//14
f 86//15 177//15 50//15
f 177//16 43//16 50//16
f 122//17 392//17 111//17
f 33//18 43//18 87//18
f 512//19 235//19 246//19
f 234//20 248//20 236//20
f 115//21 177//21 86//21
f 248//22 257//22 247//22
f 273//23 116//23 214//23
f 343//24 327//24 315//24
f 286//25 381//25 262//25
f 130//26 152//26 143//26
f 227//27 116//27 73//27
f 126//28 130//28 143//28
f 169//29 30//29 19//29
f 248//30 247//30 236//30
f 126//31 110//31 119//31
f 109//32 97//32 125//32
f 49//33 60//33 35//33
f 43//34 164//34 52//34
f 145//35 138//35 280//35
f 106//36 110//36 141//36
f 97//37 121//37 125//37
f 261//38 273//38 274//38
f 31//39 49//39 35//39
f 75//40 81//40 100//40
f 330//41 335//41 329//41
f 54//42 238//42 190//42
f 39//43 277//43 45//43
f 158//44 341//44 429//44
f 31//45 35//45 30//45
f 213//46 212//46 275//46
f 67//47 66//47 63//47
f 102//48 110//48 106//48
f 119//49 130//49 126//49
f 125//50 121//50 136//50
f 274//51 273//51 214//51
f 102//52 119//52 110//52
f 152//53 130//53 151//53
f 109//54 117//54 96//54
f 137//55 146//55 136//55
f 102//56 120//56 119//56
f 106//57 93//57 102//57
f 246//58 74//58 513//58
f 137//59 144//59 149//59
f 120//60 130//60 119//60
f 251//61 264//61 198//61
f 17//62 21//62 12//62
f 513//63 296//63 512//63
f 106//64 482//64 93//64
f 102//65 107//65 120//65
f 215//66 144//66 121//66
f 120//67 127//67 130//67
f 130//68 148//68 151//68
f 149//69 161//69 4//69
f 29//70 19//70 35//70
f 127//71 148//71 130//71
f 149//72 150//72 137//72
f 109//73 125//73 117//73
f 107//74 102//74 93//74
f 120//75 107//75 127//75
f 57//76 68//76 61//76
f 19//77 30//77 35//77
f 19//78 29//78 24//78
f 26//79 47//79 25//79
f 90//80 280//80 104//80
f 354//81 381//81 275//81
f 107//82 103//82 127//82
f 148//83 283//83 118//83
f 17//84 26//84 25//84
f 272//85 323//85 209//85
f 58//86 103//86 93//86
f 103//87 107//87 93//87
f 134//88 133//88 127//88
f 133//89 148//89 127//89
f 58//90 95//90 103//90
f 133//91 66//91 148//91
f 154//92 10//92 14//92
f 17//93 22//93 26//93
f 26//94 70//94 58//94
f 127//95 103//95 134//95
f 149//96 4//96 150//96
f 95//97 123//97 103//97
f 123//98 134//98 103//98
f 58//99 94//99 95//99
f 134//100 32//100 133//100
f 66//101 46//101 148//101
f 70//102 94//102 58//102
f 135//103 134//103 123//103
f 135//104 32//104 134//104
f 32//105 66//105 133//105
f 73//106 27//106 227//106
f 22//107 41//107 26//107
f 41//108 70//108 26//108
f 150//109 4//109 113//109
f 95//110 94//110 123//110
f 223//111 16//111 281//111
f 121//112 137//112 136//112
f 113//113 63//113 147//113
f 114//114 129//114 123//114
f 222//115 265//115 220//115
f 129//116 135//116 123//116
f 41//117 65//117 70//117
f 65//118 94//118 70//118
f 94//119 114//119 123//119
f 331//120 65//120 41//120
f 280//121 138//121 67//121
f 510//122 253//122 235//122
f 139//123 32//123 135//123
f 139//124 66//124 32//124
f 121//125 144//125 137//125
f 84//126 68//126 303//126
f 139//127 63//127 66//127
f 150//128 113//128 146//128
f 24//129 34//129 23//129
f 251//130 257//130 264//130
f 56//131 184//131 28//131
f 137//132 150//132 146//132
f 24//133 36//133 34//133
f 135//134 129//134 139//134
f 72//135 81//135 75//135
f 75//136 100//136 91//136
f 5//137 78//137 280//137
f 74//138 412//138 513//138
f 104//139 306//139 304//139
f 24//140 29//140 36//140
f 381//141 354//141 282//141
f 280//142 63//142 5//142
f 304//143 306//143 299//143
f 351//144 25//144 352//144
f 399//145 344//145 355//145
f 63//146 113//146 5//146
f 100//147 81//147 108//147
f 108//148 109//148 100//148
f 104//149 280//149 78//149
f 117//150 112//150 99//150
f 117//151 307//151 112//151
f 57//152 61//152 38//152
f 71//153 80//153 99//153
f 117//154 101//154 307//154
f 286//155 262//155 390//155
f 104//156 78//156 306//156
f 68//157 84//157 61//157
f 36//158 29//158 42//158
f 80//159 96//159 99//159
f 140//160 147//160 139//160
f 280//161 67//161 63//161
f 29//162 48//162 42//162
f 71//163 75//163 80//163
f 109//164 96//164 100//164
f 146//165 147//165 140//165
f 80//166 91//166 96//166
f 96//167 117//167 99//167
f 147//168 63//168 139//168
f 75//169 91//169 80//169
f 125//170 101//170 117//170
f 257//171 291//171 264//171
f 29//172 35//172 48//172
f 48//173 72//173 75//173
f 48//174 35//174 60//174
f 60//175 72//175 48//175
f 91//176 100//176 96//176
f 111//177 83//177 256//177
f 14//178 10//178 8//178
f 208//179 116//179 273//179
f 317//180 22//180 13//180
f 49//181 203//181 72//181
f 292//182 73//182 400//182
f 325//183 329//183 365//183
f 192//184 184//184 154//184
f 379//185 378//185 426//185
f 177//186 182//186 43//186
f 192//187 154//187 183//187
f 43//188 182//188 164//188
f 194//189 177//189 115//189
f 198//190 69//190 189//190
f 152//191 115//191 443//191
f 198//192 85//192 68//192
f 194//193 115//193 152//193
f 57//194 189//194 69//194
f 193//195 168//195 233//195
f 179//196 189//196 178//196
f 194//197 182//197 177//197
f 182//198 202//198 164//198
f 173//199 169//199 163//199
f 51//200 164//200 202//200
f 144//201 181//201 149//201
f 172//202 182//202 194//202
f 167//203 17//203 12//203
f 13//204 17//204 167//204
f 368//205 433//205 367//205
f 203//206 49//206 188//206
f 360//207 218//207 510//207
f 152//208 151//208 194//208
f 188//209 31//209 30//209
f 199//210 51//210 202//210
f 151//211 172//211 194//211
f 199//212 202//212 182//212
f 207//213 200//213 192//213
f 172//214 199//214 182//214
f 181//215 215//215 211//215
f 6//216 207//216 15//216
f 172//217 196//217 199//217
f 108//218 121//218 97//218
f 204//219 27//219 161//219
f 203//220 211//220 81//220
f 118//221 172//221 151//221
f 172//222 118//222 196//222
f 51//223 199//223 281//223
f 195//224 206//224 188//224
f 188//225 206//225 205//225
f 228//226 234//226 236//226
f 181//227 144//227 215//227
f 128//228 200//228 6//228
f 181//229 216//229 204//229
f 271//230 175//230 165//230
f 108//231 97//231 109//231
f 205//232 206//232 211//232
f 207//233 192//233 15//233
f 204//234 161//234 149//234
f 118//235 190//235 196//235
f 196//236 190//236 199//236
f 204//237 197//237 27//237
f 223//238 154//238 14//238
f 61//239 186//239 173//239
f 216//240 77//240 197//240
f 11//241 169//241 19//241
f 216//242 181//242 211//242
f 211//243 215//243 81//243
f 18//244 320//244 317//244
f 190//245 118//245 283//245
f 84//246 77//246 195//246
f 173//247 186//247 169//247
f 180//248 15//248 192//248
f 15//249 165//249 6//249
f 200//250 184//250 192//250
f 476//251 178//251 38//251
f 162//252 24//252 23//252
f 226//253 237//253 225//253
f 385//254 388//254 176//254
f 371//255 395//255 233//255
f 4//256 5//256 113//256
f 168//257 184//257 200//257
f 185//258 223//258 219//258
f 506//259 24//259 162//259
f 445//260 446//260 444//260
f 247//261 257//261 251//261
f 216//262 211//262 206//262
f 179//263 241//263 189//263
f 238//264 266//264 271//264
f 241//265 198//265 189//265
f 195//266 216//266 206//266
f 185//267 154//267 223//267
f 488//268 502//268 481//268
f 171//269 374//269 340//269
f 195//270 77//270 216//270
f 31//271 188//271 49//271
f 201//272 193//272 28//272
f 168//273 201//273 184//273
f 183//274 154//274 185//274
f 184//275 56//275 10//275
f 464//276 470//276 450//276
f 116//277 208//277 73//277
f 186//278 195//278 188//278
f 355//279 358//279 417//279
f 236//280 230//280 228//280
f 11//281 163//281 169//281
f 184//282 10//282 154//282
f 68//283 57//283 69//283
f 216//284 197//284 204//284
f 189//285 57//285 178//285
f 183//286 185//286 180//286
f 169//287 186//287 30//287
f 186//288 188//288 30//288
f 506//289 19//289 24//289
f 175//290 429//290 6//290
f 61//291 84//291 195//291
f 205//292 211//292 203//292
f 219//293 271//293 180//293
f 370//294 232//294 245//294
f 26//295 58//295 47//295
f 188//296 205//296 203//296
f 69//297 198//297 68//297
f 38//298 61//298 173//298
f 207//299 6//299 200//299
f 72//300 203//300 81//300
f 215//301 108//301 81//301
f 61//302 195//302 186//302
f 201//303 28//303 184//303
f 201//304 168//304 193//304
f 180//305 192//305 183//305
f 204//306 149//306 181//306
f 218//307 253//307 510//307
f 83//308 111//308 392//308
f 235//309 253//309 37//309
f 235//310 37//310 246//310
f 293//311 62//311 220//311
f 464//312 493//312 489//312
f 401//313 356//313 278//313
f 265//314 334//314 212//314
f 258//315 259//315 254//315
f 347//316 105//316 131//316
f 354//317 1//317 282//317
f 385//318 290//318 392//318
f 352//319 337//319 327//319
f 168//320 128//320 233//320
f 510//321 346//321 360//321
f 261//322 259//322 272//322
f 256//323 105//323 45//323
f 258//324 254//324 243//324
f 25//325 47//325 352//325
f 296//326 513//326 157//326
f 245//327 187//327 37//327
f 208//328 210//328 400//328
f 272//329 209//329 273//329
f 105//330 347//330 45//330
f 269//331 409//331 2//331
f 404//332 304//332 397//332
f 272//333 273//333 261//333
f 209//334 208//334 273//334
f 222//335 334//335 265//335
f 212//336 298//336 354//336
f 153//337 244//337 255//337
f 22//338 17//338 13//338
f 213//339 286//339 347//339
f 243//340 254//340 242//340
f 246//341 37//341 74//341
f 392//342 122//342 386//342
f 263//343 59//343 9//343
f 388//344 392//344 386//344
f 475//345 163//345 160//345
f 319//346 327//346 325//346
f 243//347 242//347 237//347
f 151//348 148//348 118//348
f 385//349 392//349 388//349
f 259//350 261//350 254//350
f 286//351 275//351 381//351
f 255//352 439//352 191//352
f 394//353 242//353 254//353
f 153//354 171//354 340//354
f 368//355 434//355 433//355
f 163//356 475//356 173//356
f 335//357 330//357 336//357
f 237//358 242//358 225//358
f 238//359 271//359 219//359
f 7//360 256//360 45//360
f 231//361 237//361 226//361
f 218//362 245//362 253//362
f 275//363 212//363 354//363
f 298//364 1//364 354//364
f 180//365 185//365 219//365
f 505//366 317//366 167//366
f 351//367 352//367 316//367
f 267//368 272//368 259//368
f 231//369 226//369 410//369
f 218//370 370//370 245//370
f 214//371 77//371 84//371
f 37//372 253//372 245//372
f 512//373 510//373 235//373
f 208//374 400//374 73//374
f 445//375 447//375 449//375
f 227//376 197//376 77//376
f 254//377 261//377 394//377
f 213//378 275//378 286//378
f 247//379 251//379 241//379
f 199//380 223//380 281//380
f 214//381 227//381 77//381
f 227//382 27//382 197//382
f 215//383 121//383 108//383
f 72//384 60//384 49//384
f 233//385 341//385 371//385
f 238//386 219//386 199//386
f 241//387 251//387 198//387
f 236//388 247//388 241//388
f 199//389 219//389 223//389
f 230//390 236//390 241//390
f 442//391 171//391 79//391
f 116//392 227//392 214//392
f 53//393 124//393 40//393
f 389//394 296//394 157//394
f 279//395 187//395 232//395
f 409//396 238//396 285//396
f 164//397 51//397 52//397
f 37//398 302//398 74//398
f 291//399 297//399 264//399
f 297//400 303//400 264//400
f 264//401 303//401 85//401
f 300//402 303//402 297//402
f 300//403 84//403 303//403
f 214//404 84//404 300//404
f 105//405 256//405 92//405
f 214//406 300//406 297//406
f 274//407 214//407 297//407
f 83//408 92//408 256//408
f 56//409 8//409 10//409
f 52//410 51//410 281//410
f 157//411 513//411 412//411
f 132//412 124//412 53//412
f 403//413 249//413 345//413
f 282//414 284//414 348//414
f 54//415 283//415 46//415
f 281//416 64//416 52//416
f 90//417 145//417 280//417
f 294//418 9//418 132//418
f 301//419 64//419 289//419
f 187//420 294//420 132//420
f 52//421 64//421 142//421
f 132//422 53//422 302//422
f 220//423 131//423 105//423
f 262//424 282//424 348//424
f 284//425 64//425 124//425
f 285//426 145//426 2//426
f 187//427 245//427 232//427
f 285//428 54//428 138//428
f 131//429 265//429 213//429
f 289//430 64//430 16//430
f 285//431 138//431 145//431
f 16//432 223//432 14//432
f 64//433 282//433 1//433
f 132//434 284//434 124//434
f 285//435 238//435 54//435
f 146//436 113//436 147//436
f 138//437 54//437 46//437
f 268//438 351//438 310//438
f 52//439 142//439 87//439
f 73//440 295//440 27//440
f 395//441 193//441 233//441
f 357//442 9//442 59//442
f 262//443 381//443 282//443
f 64//444 1//444 142//444
f 54//445 190//445 283//445
f 89//446 161//446 27//446
f 8//447 56//447 28//447
f 124//448 64//448 301//448
f 124//449 301//449 40//449
f 27//450 295//450 89//450
f 73//451 292//451 295//451
f 138//452 46//452 66//452
f 409//453 285//453 2//453
f 238//454 199//454 190//454
f 145//455 90//455 2//455
f 316//456 352//456 343//456
f 23//457 18//457 162//457
f 16//458 64//458 281//458
f 295//459 306//459 89//459
f 89//460 5//460 161//460
f 161//461 5//461 4//461
f 292//462 299//462 295//462
f 136//463 146//463 101//463
f 295//464 299//464 306//464
f 62//465 222//465 220//465
f 78//466 5//466 89//466
f 193//467 8//467 28//467
f 46//468 283//468 148//468
f 405//469 263//469 279//469
f 286//470 390//470 347//470
f 306//471 78//471 89//471
f 187//472 132//472 302//472
f 21//473 351//473 268//473
f 34//474 22//474 320//474
f 41//475 34//475 331//475
f 312//476 20//476 3//476
f 71//477 48//477 75//477
f 112//478 114//478 94//478
f 47//479 58//479 482//479
f 284//480 132//480 9//480
f 114//481 307//481 129//481
f 112//482 307//482 114//482
f 94//483 55//483 112//483
f 128//484 6//484 429//484
f 284//485 9//485 221//485
f 50//486 33//486 333//486
f 158//487 312//487 3//487
f 156//488 98//488 170//488
f 331//489 55//489 65//489
f 94//490 65//490 55//490
f 12//491 21//491 268//491
f 140//492 139//492 129//492
f 513//493 512//493 246//493
f 175//494 6//494 165//494
f 351//495 316//495 310//495
f 337//496 482//496 336//496
f 284//497 221//497 348//497
f 328//498 87//498 142//498
f 339//499 512//499 296//499
f 292//500 366//500 299//500
f 326//501 50//501 332//501
f 36//502 55//502 331//502
f 351//503 21//503 25//503
f 36//504 42//504 55//504
f 71//505 55//505 42//505
f 229//506 225//506 228//506
f 141//507 110//507 324//507
f 71//508 99//508 55//508
f 126//509 321//509 324//509
f 319//510 322//510 318//510
f 333//511 33//511 328//511
f 314//512 319//512 318//512
f 50//513 333//513 332//513
f 168//514 200//514 128//514
f 99//515 112//515 55//515
f 321//516 126//516 143//516
f 165//517 180//517 271//517
f 34//518 36//518 331//518
f 33//519 87//519 328//519
f 352//520 47//520 482//520
f 385//521 324//521 290//521
f 315//522 319//522 314//522
f 320//523 23//523 34//523
f 312//524 158//524 175//524
f 324//525 385//525 260//525
f 324//526 321//526 290//526
f 307//527 140//527 129//527
f 328//528 1//528 298//528
f 34//529 41//529 22//529
f 330//530 329//530 327//530
f 142//531 1//531 328//531
f 157//532 390//532 389//532
f 110//533 126//533 324//533
f 79//534 171//534 153//534
f 317//535 320//535 22//535
f 16//536 8//536 289//536
f 327//537 329//537 325//537
f 328//538 298//538 334//538
f 307//539 101//539 140//539
f 217//540 86//540 326//540
f 321//541 143//541 494//541
f 333//542 334//542 222//542
f 16//543 14//543 8//543
f 332//544 333//544 222//544
f 333//545 328//545 334//545
f 361//546 240//546 397//546
f 311//547 380//547 372//547
f 263//548 405//548 276//548
f 417//549 376//549 407//549
f 59//550 263//550 276//550
f 350//551 270//551 360//551
f 360//552 270//552 276//552
f 270//553 59//553 276//553
f 334//554 298//554 212//554
f 270//555 357//555 59//555
f 339//556 350//556 346//556
f 397//557 396//557 382//557
f 376//558 383//558 387//558
f 383//559 191//559 387//559
f 287//560 357//560 270//560
f 364//561 383//561 376//561
f 357//562 287//562 9//562
f 79//563 191//563 383//563
f 224//564 287//564 270//564
f 376//565 417//565 364//565
f 364//566 433//566 383//566
f 79//567 255//567 191//567
f 327//568 337//568 330//568
f 125//569 136//569 101//569
f 152//570 484//570 143//570
f 350//571 224//571 270//571
f 321//572 494//572 92//572
f 383//573 442//573 79//573
f 417//574 358//574 364//574
f 383//575 433//575 442//575
f 491//576 500//576 483//576
f 342//577 278//577 344//577
f 364//578 358//578 367//578
f 339//579 296//579 224//579
f 224//580 350//580 339//580
f 344//581 408//581 342//581
f 364//582 367//582 433//582
f 288//583 395//583 3//583
f 408//584 403//584 345//584
f 287//585 221//585 9//585
f 482//586 337//586 352//586
f 358//587 368//587 367//587
f 366//588 292//588 396//588
f 293//589 220//589 105//589
f 401//590 342//590 408//590
f 362//591 368//591 358//591
f 352//592 327//592 343//592
f 396//593 292//593 338//593
f 337//594 336//594 330//594
f 220//595 265//595 131//595
f 356//596 362//596 358//596
f 292//597 239//597 338//597
f 438//598 384//598 156//598
f 8//599 193//599 288//599
f 342//600 401//600 278//600
f 213//601 265//601 212//601
f 451//602 452//602 464//602
f 213//603 347//603 131//603
f 296//604 44//604 224//604
f 221//605 287//605 224//605
f 43//606 52//606 87//606
f 361//607 391//607 240//607
f 156//608 305//608 98//608
f 389//609 44//609 296//609
f 290//610 83//610 392//610
f 8//611 288//611 20//611
f 321//612 92//612 83//612
f 384//613 122//613 156//613
f 291//614 418//614 359//614
f 470//615 469//615 450//615
f 290//616 321//616 83//616
f 439//617 380//617 441//617
f 315//618 327//618 319//618
f 384//619 386//619 122//619
f 221//620 224//620 44//620
f 122//621 305//621 156//621
f 7//622 277//622 305//622
f 244//623 372//623 380//623
f 428//624 378//624 438//624
f 384//625 378//625 386//625
f 390//626 44//626 389//626
f 322//627 353//627 345//627
f 244//628 153//628 340//628
f 348//629 221//629 44//629
f 111//630 7//630 305//630
f 404//631 397//631 240//631
f 322//632 345//632 318//632
f 353//633 363//633 422//633
f 378//634 388//634 386//634
f 262//635 44//635 390//635
f 301//636 20//636 88//636
f 365//637 363//637 353//637
f 378//638 379//638 388//638
f 262//639 348//639 44//639
f 289//640 20//640 301//640
f 289//641 8//641 20//641
f 363//642 365//642 369//642
f 122//643 111//643 305//643
f 325//644 365//644 353//644
f 319//645 353//645 322//645
f 256//646 7//646 111//646
f 45//647 347//647 39//647
f 86//648 50//648 326//648
f 325//649 353//649 319//649
f 232//650 405//650 279//650
f 240//651 340//651 374//651
f 356//652 358//652 278//652
f 210//653 323//653 311//653
f 261//654 274//654 359//654
f 359//655 394//655 261//655
f 210//656 208//656 209//656
f 267//657 259//657 424//657
f 338//658 239//658 377//658
f 311//659 323//659 393//659
f 292//660 400//660 239//660
f 370//661 405//661 232//661
f 500//662 504//662 483//662
f 377//663 239//663 311//663
f 422//664 401//664 353//664
f 239//665 210//665 311//665
f 244//666 380//666 255//666
f 90//667 304//667 404//667
f 359//668 418//668 394//668
f 481//669 502//669 492//669
f 248//670 418//670 257//670
f 74//671 40//671 301//671
f 311//672 393//672 380//672
f 366//673 396//673 304//673
f 481//674 492//674 473//674
f 481//675 473//675 461//675
f 382//676 166//676 397//676
f 301//677 88//677 74//677
f 380//678 439//678 255//678
f 88//679 412//679 74//679
f 355//680 407//680 399//680
f 2//681 375//681 250//681
f 340//682 240//682 391//682
f 397//683 166//683 361//683
f 88//684 406//684 412//684
f 372//685 244//685 361//685
f 370//686 218//686 360//686
f 406//687 349//687 412//687
f 398//688 373//688 402//688
f 266//689 406//689 271//689
f 180//690 165//690 15//690
f 429//691 341//691 128//691
f 250//692 375//692 240//692
f 304//693 396//693 397//693
f 349//694 373//694 82//694
f 373//695 398//695 82//695
f 299//696 366//696 304//696
f 266//697 409//697 349//697
f 209//698 323//698 210//698
f 274//699 297//699 291//699
f 375//700 404//700 240//700
f 238//701 409//701 266//701
f 409//702 269//702 349//702
f 90//703 404//703 375//703
f 418//704 291//704 257//704
f 349//705 269//705 373//705
f 90//706 375//706 2//706
f 400//707 210//707 239//707
f 494//708 143//708 484//708
f 406//709 88//709 159//709
f 48//710 71//710 42//710
f 269//711 402//711 373//711
f 240//712 374//712 250//712
f 303//713 68//713 85//713
f 396//714 338//714 382//714
f 278//715 358//715 355//715
f 269//716 374//716 402//716
f 274//717 291//717 359//717
f 269//718 2//718 250//718
f 288//719 193//719 395//719
f 101//720 146//720 140//720
f 393//721 323//721 436//721
f 250//722 374//722 269//722
f 372//723 377//723 311//723
f 305//724 277//724 98//724
f 21//725 17//725 25//725
f 39//726 313//726 277//726
f 313//727 390//727 157//727
f 401//728 345//728 353//728
f 234//729 418//729 248//729
f 402//730 174//730 398//730
f 234//731 242//731 418//731
f 242//732 394//732 418//732
f 371//733 3//733 395//733
f 82//734 412//734 349//734
f 39//735 390//735 313//735
f 225//736 234//736 228//736
f 421//737 362//737 356//737
f 362//738 421//738 368//738
f 155//739 170//739 402//739
f 369//740 430//740 363//740
f 244//741 340//741 391//741
f 438//742 156//742 440//742
f 225//743 242//743 234//743
f 312//744 175//744 406//744
f 378//745 384//745 438//745
f 428//746 430//746 369//746
f 266//747 349//747 406//747
f 492//748 502//748 497//748
f 259//749 258//749 424//749
f 363//750 430//750 421//750
f 267//751 424//751 272//751
f 98//752 277//752 174//752
f 424//753 436//753 272//753
f 171//754 155//754 374//754
f 243//755 237//755 258//755
f 424//756 427//756 436//756
f 505//757 167//757 502//757
f 174//758 277//758 398//758
f 237//759 415//759 258//759
f 422//760 421//760 356//760
f 435//761 171//761 433//761
f 436//762 323//762 272//762
f 401//763 422//763 356//763
f 430//764 435//764 421//764
f 231//765 415//765 237//765
f 255//766 79//766 153//766
f 452//767 465//767 464//767
f 438//768 440//768 430//768
f 415//769 419//769 258//769
f 419//770 424//770 258//770
f 408//771 345//771 401//771
f 7//772 45//772 277//772
f 431//773 393//773 436//773
f 231//774 411//774 415//774
f 424//775 419//775 420//775
f 424//776 420//776 427//776
f 427//777 431//777 436//777
f 421//778 434//778 368//778
f 415//779 414//779 419//779
f 170//780 98//780 174//780
f 433//781 171//781 442//781
f 411//782 414//782 415//782
f 166//783 338//783 372//783
f 166//784 382//784 338//784
f 159//785 88//785 20//785
f 414//786 420//786 419//786
f 441//787 393//787 431//787
f 427//788 432//788 431//788
f 372//789 338//789 377//789
f 159//790 20//790 312//790
f 423//791 427//791 420//791
f 427//792 423//792 432//792
f 431//793 432//793 441//793
f 361//794 166//794 372//794
f 414//795 416//795 420//795
f 435//796 440//796 171//796
f 313//797 157//797 412//797
f 414//798 413//798 416//798
f 416//799 423//799 420//799
f 421//800 435//800 434//800
f 411//801 413//801 414//801
f 363//802 421//802 422//802
f 244//803 391//803 361//803
f 398//804 277//804 82//804
f 423//805 425//805 432//805
f 399//806 410//806 444//806
f 174//807 402//807 170//807
f 231//808 410//808 411//808
f 432//809 439//809 441//809
f 440//810 155//810 171//810
f 393//811 441//811 380//811
f 416//812 425//812 423//812
f 410//813 399//813 411//813
f 407//814 413//814 411//814
f 489//815 503//815 488//815
f 411//816 399//816 407//816
f 350//817 360//817 346//817
f 3//818 20//818 288//818
f 503//819 502//819 488//819
f 407//820 416//820 413//820
f 170//821 155//821 440//821
f 155//822 402//822 374//822
f 276//823 370//823 360//823
f 459//824 452//824 453//824
f 3//825 371//825 341//825
f 407//826 376//826 416//826
f 376//827 425//827 416//827
f 156//828 170//828 440//828
f 158//829 3//829 341//829
f 347//830 390//830 39//830
f 438//831 430//831 428//831
f 425//832 437//832 432//832
f 410//833 445//833 444//833
f 432//834 437//834 439//834
f 249//835 318//835 345//835
f 376//836 437//836 425//836
f 309//837 316//837 343//837
f 343//838 315//838 309//838
f 355//839 417//839 407//839
f 217//840 326//840 332//840
f 376//841 387//841 437//841
f 437//842 387//842 439//842
f 387//843 191//843 439//843
f 175//844 158//844 429//844
f 406//845 159//845 312//845
f 277//846 313//846 82//846
f 434//847 435//847 433//847
f 495//848 492//848 497//848
f 478//849 160//849 490//849
f 160//850 499//850 490//850
f 160//851 508//851 499//851
f 466//852 465//852 452//852
f 506//853 162//853 18//853
f 472//854 471//854 479//854
f 230//855 476//855 457//855
f 509//856 317//856 505//856
f 491//857 490//857 499//857
f 471//858 475//858 479//858
f 512//859 346//859 510//859
f 506//860 18//860 509//860
f 512//861 339//861 346//861
f 449//862 447//862 451//862
f 457//863 454//863 229//863
f 454//864 471//864 472//864
f 475//865 160//865 478//865
f 491//866 499//866 498//866
f 456//867 459//867 453//867
f 465//868 483//868 464//868
f 229//869 454//869 453//869
f 406//870 175//870 271//870
f 479//871 475//871 478//871
f 459//872 462//872 452//872
f 457//873 471//873 454//873
f 457//874 475//874 471//874
f 456//875 454//875 463//875
f 92//876 293//876 105//876
f 229//877 453//877 225//877
f 473//878 492//878 487//878
f 179//879 178//879 476//879
f 92//880 494//880 293//880
f 494//881 62//881 293//881
f 11//882 506//882 160//882
f 453//883 447//883 226//883
f 167//884 317//884 13//884
f 226//885 445//885 410//885
f 454//886 456//886 453//886
f 451//887 450//887 449//887
f 314//888 308//888 315//888
f 451//889 464//889 450//889
f 260//890 385//890 176//890
f 228//891 457//891 229//891
f 62//892 217//892 332//892
f 443//893 115//893 86//893
f 445//894 449//894 450//894
f 222//895 62//895 332//895
f 462//896 466//896 452//896
f 160//897 163//897 11//897
f 493//898 507//898 489//898
f 464//899 489//899 470//899
f 494//900 217//900 62//900
f 507//901 503//901 489//901
f 176//902 426//902 260//902
f 483//903 493//903 464//903
f 426//904 252//904 260//904
f 320//905 18//905 23//905
f 484//906 217//906 494//906
f 378//907 501//907 426//907
f 506//908 509//908 508//908
f 501//909 76//909 426//909
f 443//910 217//910 484//910
f 179//911 476//911 230//911
f 443//912 86//912 217//912
f 249//913 314//913 318//913
f 428//914 369//914 501//914
f 141//915 260//915 252//915
f 141//916 324//916 260//916
f 294//917 263//917 9//917
f 128//918 341//918 233//918
f 476//919 475//919 457//919
f 76//920 252//920 426//920
f 490//921 465//921 466//921
f 369//922 365//922 501//922
f 490//923 483//923 465//923
f 310//924 511//924 268//924
f 152//925 443//925 484//925
f 252//926 76//926 141//926
f 478//927 490//927 474//927
f 173//928 476//928 38//928
f 408//929 460//929 403//929
f 460//930 249//930 403//930
f 501//931 335//931 76//931
f 268//932 167//932 12//932
f 308//933 314//933 249//933
f 463//934 454//934 472//934
f 491//935 483//935 490//935
f 365//936 335//936 501//936
f 241//937 179//937 230//937
f 76//938 496//938 141//938
f 474//939 490//939 466//939
f 485//940 249//940 460//940
f 485//941 308//941 249//941
f 336//942 76//942 335//942
f 336//943 496//943 76//943
f 482//944 106//944 141//944
f 173//945 475//945 476//945
f 496//946 482//946 141//946
f 308//947 309//947 315//947
f 316//948 309//948 310//948
f 178//949 57//949 38//949
f 447//950 453//950 452//950
f 486//951 485//951 460//951
f 408//952 467//952 460//952
f 308//953 310//953 309//953
f 336//954 482//954 496//954
f 399//955 444//955 344//955
f 344//956 448//956 408//956
f 308//957 511//957 310//957
f 477//958 486//958 460//958
f 497//959 308//959 485//959
f 477//960 460//960 467//960
f 446//961 448//961 344//961
f 467//962 408//962 448//962
f 461//963 467//963 448//963
f 455//964 461//964 448//964
f 344//965 278//965 355//965
f 446//966 344//966 444//966
f 167//967 511//967 308//967
f 276//968 405//968 370//968
f 501//969 378//969 428//969
f 450//970 448//970 446//970
f 450//971 458//971 448//971
f 458//972 455//972 448//972
f 11//973 19//973 506//973
f 167//974 268//974 511//974
f 226//975 447//975 445//975
f 160//976 506//976 508//976
f 467//977 480//977 477//977
f 502//978 308//978 497//978
f 225//979 453//979 226//979
f 58//980 93//980 482//980
f 450//981 468//981 458//981
f 230//982 457//982 228//982
f 498//983 500//983 491//983
f 483//984 504//984 493//984
f 469//985 468//985 450//985
f 473//986 467//986 461//986
f 473//987 480//987 467//987
f 447//988 452//988 451//988
f 167//989 308//989 502//989
f 446//990 445//990 450//990
f 18//991 317//991 509//991
f 473//992 487//992 480//992
f 365//993 329//993 335//993
