# Blender 4.0.2
# www.blender.org
mtllib bowl.mtl
o Icosphere.006
v 0.000000 -3.237272 -0.000000
v 2.894428 -1.788880 2.102900
v -1.105552 -1.788880 3.402596
v -3.577704 -1.788864 -0.000000
v -1.105552 -1.788880 -3.402596
v 2.894428 -1.788880 -2.102900
v -0.931288 -3.237272 2.866252
v -0.649824 -3.237272 1.999980
v -0.310428 -3.237272 0.955412
v 0.812724 -3.237272 0.590472
v 1.701292 -3.237272 1.236044
v 2.438188 -3.237272 1.771424
v 2.127764 -2.009208 2.726848
v 1.051476 -2.102952 3.236048
v -0.118556 -2.009208 3.456736
v 3.250916 -2.009204 -1.180952
v 3.402592 -2.102944 -0.000000
v 3.250916 -2.009204 1.180952
v 0.812724 -3.237272 -0.590472
v 1.701292 -3.237272 -1.236044
v 2.438188 -3.237272 -1.771424
v -3.013768 -3.237272 -0.000000
v -2.102920 -3.237272 -0.000000
v -1.004588 -3.237272 -0.000000
v -1.935884 -2.009208 2.866260
v -2.752756 -2.102944 1.999988
v -3.324204 -2.009196 0.955412
v -0.931288 -3.237272 -2.866252
v -0.649824 -3.237272 -1.999980
v -0.310428 -3.237272 -0.955412
v -3.324204 -2.009196 -0.955412
v -2.752756 -2.102944 -1.999988
v -1.935884 -2.009208 -2.866260
v -0.118556 -2.009208 -3.456736
v 1.051476 -2.102952 -3.236048
v 2.127764 -2.009208 -2.726848
v 3.804232 -0.000000 1.236052
v 3.442792 -1.004604 1.771432
v 3.442792 -1.004604 -1.771432
v 3.804232 0.000000 -1.236052
v 0.000000 -0.000000 4.000000
v -0.620860 -1.004608 3.821688
v 2.748636 -1.004608 2.726860
v 2.351144 -0.000000 3.236068
v -3.804232 -0.000000 1.236052
v -3.826504 -1.004596 0.590472
v -1.744028 -1.004608 3.456752
v -2.351144 -0.000000 3.236068
v -2.351144 0.000000 -3.236068
v -1.744028 -1.004608 -3.456752
v -3.826504 -1.004596 -0.590472
v -3.804232 0.000000 -1.236052
v 2.351144 0.000000 -3.236068
v 2.748636 -1.004608 -2.726860
v -0.620860 -1.004608 -3.821688
v 0.000000 0.000000 -4.000000
v 3.236076 0.000000 -2.351128
v -1.236064 0.000000 -3.804228
v -4.000000 0.000004 0.000000
v -1.236068 -0.000004 3.804224
v 3.236076 -0.000008 2.351132
v 1.236068 0.000000 -3.804224
v 1.788864 -1.105592 -3.402592
v 0.552796 -1.105592 -3.804220
v -3.236072 0.000000 -2.351132
v -2.683276 -1.105588 -2.752764
v -3.447212 -1.105584 -1.701296
v -3.236072 -0.000000 2.351132
v -3.447212 -1.105584 1.701296
v -2.683276 -1.105588 2.752764
v 1.236068 -0.000000 3.804224
v 0.552796 -1.105592 3.804220
v 1.788864 -1.105592 3.402592
v 4.000000 0.000000 0.000000
v 3.788852 -1.105584 0.649832
v 3.788852 -1.105584 -0.649832
v 1.447212 -3.237272 -2.351116
v 0.552788 -3.237272 -1.701284
v 0.211156 -3.237272 -2.752744
v -1.788844 -3.237272 -2.102908
v -1.447204 -3.237272 -1.051452
v -2.552780 -3.237272 -1.051452
v -2.552780 -3.237272 1.051456
v -1.447204 -3.237272 1.051456
v -1.788844 -3.237272 2.102916
v 2.683268 -3.237272 -0.649828
v 2.683272 -3.237272 0.649832
v 1.788844 -3.237272 0.000004
v 0.211160 -3.237272 2.752740
v 0.552796 -3.237272 1.701284
v 1.447220 -3.237272 2.351116
v 0.000000 -2.957272 -0.000000
v 2.683708 -1.686124 1.949804
v -1.025064 -1.686128 3.154880
v -3.317240 -1.686112 -0.000000
v -1.025064 -1.686128 -3.154880
v 2.683708 -1.686124 -1.949804
v -0.878452 -3.015532 2.703648
v -0.649824 -2.957272 1.999980
v -0.310428 -2.957272 0.955412
v 0.812724 -2.957272 0.590472
v 1.701292 -2.957272 1.236044
v 2.299868 -3.015532 1.670932
v 1.980208 -1.892776 2.519312
v 0.974380 -1.975844 2.998772
v -0.121172 -1.892776 3.202104
v 3.007940 -1.892772 -1.104752
v 3.153104 -1.975836 -0.000000
v 3.007940 -1.892772 1.104752
v 0.812724 -2.957272 -0.590472
v 1.701292 -2.957272 -1.236044
v 2.299868 -3.015532 -1.670932
v -2.842792 -3.015532 -0.000000
v -2.102920 -2.957272 -0.000000
v -1.004588 -2.957272 -0.000000
v -1.784104 -1.892776 2.661792
v -2.550916 -1.975840 1.853344
v -3.082840 -1.892764 0.874240
v -0.878452 -3.015532 -2.703648
v -0.649824 -2.957272 -1.999980
v -0.310428 -2.957272 -0.955412
v -3.082840 -1.892764 -0.874244
v -2.550916 -1.975840 -1.853344
v -1.784104 -1.892776 -2.661792
v -0.121172 -1.892776 -3.202104
v 0.974380 -1.975844 -2.998772
v 1.980208 -1.892776 -2.519312
v 3.539396 0.032728 1.151252
v 3.200596 -0.936544 1.648512
v 3.200596 -0.936544 -1.648512
v 3.539396 0.032728 -1.151252
v -0.001192 0.032728 3.721920
v -0.578800 -0.936548 3.553360
v 2.556888 -0.936548 2.534504
v 2.188656 0.032728 3.010396
v -3.540132 0.032728 1.148988
v -3.558312 -0.936540 0.547560
v -1.620336 -0.936552 3.214948
v -2.186728 0.032728 3.011796
v -2.186728 0.032728 -3.011796
v -1.620336 -0.936552 -3.214948
v -3.558312 -0.936540 -0.547560
v -3.540132 0.032728 -1.148988
v 2.188656 0.032728 -3.010396
v 2.556888 -0.936548 -2.534504
v -0.578800 -0.936548 -3.553360
v -0.001192 0.032728 -3.721920
v 3.010936 0.030928 -2.187556
v -1.150072 0.030924 -3.539560
v -3.721712 0.030928 0.000000
v -1.150072 0.030924 3.539560
v 3.010936 0.030920 2.187560
v 1.150260 0.035920 -3.540132
v 1.665444 -1.029312 -3.163116
v 0.511880 -1.029312 -3.537936
v -3.011420 0.035920 -2.187912
v -2.493656 -1.029312 -2.561384
v -3.206604 -1.029308 -1.580096
v -3.011420 0.035920 2.187912
v -3.206604 -1.029308 1.580096
v -2.493656 -1.029312 2.561384
v 1.150260 0.035920 3.540132
v 0.511880 -1.029312 3.537936
v 1.665444 -1.029312 3.163116
v 3.722312 0.035920 0.000000
v 3.522956 -1.029308 0.606456
v 3.522956 -1.029308 -0.606456
v 1.383732 -2.999212 -2.218084
v 0.552788 -2.957272 -1.701284
v 0.184320 -2.999212 -2.607808
v -1.681940 -2.999212 -2.001424
v -1.447204 -2.957272 -1.051452
v -2.423228 -2.999212 -0.981140
v -2.423224 -2.999212 0.981144
v -1.447204 -2.957272 1.051456
v -1.681940 -2.999212 2.001428
v 2.537132 -2.999212 -0.630560
v 2.537132 -2.999212 0.630564
v 1.788844 -2.957272 0.000004
v 0.184324 -2.999212 2.607804
v 0.552796 -2.957272 1.701284
v 1.383736 -2.999212 2.218084
vn -0.0000 -1.0000 -0.0000
vn 0.7526 -0.3670 0.5468
vn 0.4940 -0.7919 0.3589
vn 0.8678 -0.4158 0.2721
vn 0.8650 -0.2431 0.4390
vn -0.2875 -0.3670 0.8847
vn 0.0093 -0.4158 0.9094
vn -0.1502 -0.2431 0.9583
vn -0.9302 -0.3670 -0.0000
vn -0.8620 -0.4158 0.2899
vn -0.9578 -0.2431 0.1533
vn -0.2875 -0.3670 -0.8847
vn -0.5421 -0.4158 -0.7302
vn -0.4417 -0.2431 -0.8636
vn 0.7526 -0.3670 -0.5468
vn 0.5270 -0.4158 -0.7412
vn 0.6848 -0.2431 -0.6870
vn 0.6848 -0.2431 0.6870
vn -0.4417 -0.2431 0.8636
vn -0.9578 -0.2431 -0.1533
vn -0.1502 -0.2431 -0.9583
vn 0.8650 -0.2431 -0.4390
vn 0.6529 0.5904 -0.4744
vn 0.7713 0.5863 -0.2475
vn 0.4738 0.5863 -0.6571
vn -0.2494 0.5904 -0.7676
vn 0.0029 0.5863 -0.8101
vn -0.4785 0.5863 -0.6536
vn -0.8071 0.5905 -0.0000
vn -0.7695 0.5863 -0.2531
vn -0.7695 0.5863 0.2531
vn -0.2494 0.5904 0.7676
vn -0.4785 0.5863 0.6536
vn 0.0029 0.5863 0.8101
vn 0.6529 0.5904 0.4744
vn 0.4738 0.5863 0.6571
vn 0.7713 0.5863 0.2475
vn 0.4408 -0.2724 -0.8553
vn 0.2517 0.5802 -0.7746
vn 0.1461 -0.2724 -0.9510
vn 0.2753 -0.4540 -0.8474
vn 0.0093 -0.4158 -0.9094
vn -0.6772 -0.2724 -0.6835
vn -0.6589 0.5802 -0.4788
vn -0.8593 -0.2724 -0.4329
vn -0.7209 -0.4540 -0.5237
vn -0.8620 -0.4158 -0.2899
vn -0.8593 -0.2724 0.4329
vn -0.6589 0.5802 0.4788
vn -0.6772 -0.2724 0.6835
vn -0.7209 -0.4539 0.5237
vn -0.5421 -0.4158 0.7302
vn 0.1461 -0.2724 0.9510
vn 0.2517 0.5802 0.7746
vn 0.4408 -0.2724 0.8553
vn 0.2753 -0.4540 0.8474
vn 0.5270 -0.4158 0.7412
vn 0.9496 -0.2724 0.1549
vn 0.8145 0.5802 -0.0000
vn 0.9496 -0.2724 -0.1549
vn 0.8910 -0.4539 -0.0000
vn 0.8678 -0.4158 -0.2721
vn 0.4940 -0.7919 -0.3589
vn 0.2267 -0.8502 -0.4751
vn 0.0958 -0.8502 -0.5176
vn -0.1887 -0.7919 -0.5807
vn -0.3818 -0.8502 -0.3624
vn -0.4627 -0.8502 -0.2511
vn -0.6106 -0.7919 -0.0000
vn -0.4627 -0.8502 0.2511
vn -0.3818 -0.8502 0.3624
vn -0.1887 -0.7919 0.5807
vn 0.5219 -0.8502 -0.0688
vn 0.5219 -0.8502 0.0688
vn 0.0958 -0.8502 0.5176
vn 0.2267 -0.8502 0.4751
vn -0.0000 1.0000 -0.0000
vn -0.7555 0.3578 -0.5489
vn -0.8735 0.4037 -0.2720
vn -0.4819 0.8032 -0.3501
vn -0.8649 0.2432 -0.4392
vn 0.2886 0.3578 -0.8881
vn 0.1504 0.2432 -0.9582
vn -0.0112 0.4037 -0.9148
vn 0.9338 0.3578 -0.0000
vn 0.9578 0.2432 -0.1530
vn 0.8666 0.4037 -0.2934
vn 0.2886 0.3578 0.8881
vn 0.4415 0.2432 0.8637
vn 0.5468 0.4037 0.7335
vn -0.7555 0.3578 0.5489
vn -0.6849 0.2432 0.6868
vn -0.5286 0.4037 0.7467
vn -0.6849 0.2432 -0.6868
vn 0.4415 0.2432 -0.8637
vn 0.9578 0.2432 0.1530
vn 0.1504 0.2432 0.9582
vn -0.8649 0.2432 0.4392
vn -0.5462 0.8193 0.1743
vn -0.4678 0.8159 0.3399
vn -0.3345 0.8193 0.4656
vn -0.0030 0.8193 0.5733
vn 0.1787 0.8159 0.5499
vn 0.3395 0.8193 0.4621
vn 0.5443 0.8193 0.1801
vn 0.5782 0.8159 -0.0000
vn 0.5443 0.8193 -0.1801
vn 0.3394 0.8193 -0.4620
vn 0.1787 0.8159 -0.5499
vn -0.0030 0.8193 -0.5733
vn -0.3345 0.8193 -0.4656
vn -0.4678 0.8159 -0.3399
vn -0.5462 0.8193 -0.1743
vn -0.4410 0.2725 0.8551
vn -0.1749 0.8244 0.5383
vn -0.1458 0.2725 0.9510
vn -0.2770 0.4433 0.8525
vn -0.0112 0.4037 0.9148
vn 0.6770 0.2725 0.6837
vn 0.4579 0.8244 0.3327
vn 0.8594 0.2725 0.4326
vn 0.7252 0.4433 0.5269
vn 0.8666 0.4037 0.2934
vn 0.8594 0.2725 -0.4326
vn 0.4579 0.8244 -0.3327
vn 0.6770 0.2725 -0.6837
vn 0.7252 0.4433 -0.5269
vn 0.5468 0.4037 -0.7335
vn -0.1458 0.2725 -0.9510
vn -0.1749 0.8244 -0.5383
vn -0.4410 0.2725 -0.8551
vn -0.2770 0.4433 -0.8525
vn -0.5286 0.4037 -0.7467
vn -0.9495 0.2725 -0.1552
vn -0.5661 0.8244 -0.0000
vn -0.9495 0.2725 0.1552
vn -0.8964 0.4433 -0.0000
vn -0.8735 0.4037 0.2720
vn -0.4819 0.8032 0.3501
vn 0.0355 0.9990 -0.0258
vn -0.2229 0.8558 0.4669
vn 0.0087 0.9996 -0.0269
vn -0.0941 0.8558 0.5087
vn -0.0136 0.9990 -0.0417
vn 0.1841 0.8032 0.5665
vn 0.3751 0.8558 0.3562
vn -0.0229 0.9996 -0.0166
vn 0.4547 0.8558 0.2467
vn -0.0439 0.9990 -0.0000
vn 0.5957 0.8032 -0.0000
vn 0.4547 0.8558 -0.2467
vn -0.0229 0.9996 0.0166
vn 0.3751 0.8558 -0.3562
vn -0.0136 0.9990 0.0417
vn 0.1841 0.8032 -0.5665
vn -0.5129 0.8558 0.0677
vn -0.5129 0.8558 -0.0677
vn 0.0283 0.9996 -0.0000
vn 0.0355 0.9990 0.0258
vn -0.0941 0.8558 -0.5087
vn 0.0087 0.9996 0.0269
vn -0.2229 0.8558 -0.4669
vt 0.181819 0.000000
vt 0.204546 0.039365
vt 0.159092 0.039365
vt 0.272728 0.157461
vt 0.295455 0.118096
vt 0.318182 0.157461
vt 0.909091 0.000000
vt 0.931818 0.039365
vt 0.886364 0.039365
vt 0.727273 0.000000
vt 0.750000 0.039365
vt 0.704546 0.039365
vt 0.545455 0.000000
vt 0.568182 0.039365
vt 0.522728 0.039365
vt 0.295455 0.196826
vt 0.090910 0.157461
vt 0.136364 0.157461
vt 0.113637 0.196826
vt 0.818182 0.157461
vt 0.863636 0.157461
vt 0.840909 0.196826
vt 0.636364 0.157461
vt 0.681818 0.157461
vt 0.659091 0.196826
vt 0.454546 0.157461
vt 0.500000 0.157461
vt 0.477273 0.196826
vt 0.250001 0.196826
vt 0.068182 0.196826
vt 0.795455 0.196826
vt 0.613637 0.196826
vt 0.431819 0.196826
vt 0.454546 0.236191
vt 0.409091 0.236191
vt 0.500000 0.236191
vt 0.636364 0.236191
vt 0.590909 0.236191
vt 0.681818 0.236191
vt 0.818182 0.236191
vt 0.772727 0.236191
vt 0.863636 0.236191
vt 0.090910 0.236191
vt 0.045455 0.236191
vt 0.136364 0.236191
vt 0.272728 0.236191
vt 0.227273 0.236191
vt 0.318182 0.236191
vt 0.522728 0.196826
vt 0.545455 0.236191
vt 0.568182 0.196826
vt 0.545455 0.157461
vt 0.590909 0.157461
vt 0.704546 0.196826
vt 0.727273 0.236191
vt 0.750000 0.196826
vt 0.727273 0.157461
vt 0.772727 0.157461
vt 0.886364 0.196826
vt 0.909091 0.236191
vt 0.931818 0.196826
vt 0.954545 0.236191
vt 0.977273 0.196826
vt 0.909091 0.157461
vt 0.954545 0.157461
vt 1.000000 0.157461
vt 0.159092 0.196826
vt 0.181819 0.236191
vt 0.204546 0.196826
vt 0.181819 0.157461
vt 0.227274 0.157461
vt 0.340910 0.196826
vt 0.363637 0.236191
vt 0.386364 0.196826
vt 0.363637 0.157461
vt 0.409092 0.157461
vt 0.477273 0.118096
vt 0.500000 0.078731
vt 0.522728 0.118096
vt 0.545455 0.078731
vt 0.568182 0.118096
vt 0.590909 0.078731
vt 0.613637 0.118096
vt 0.659091 0.118096
vt 0.681818 0.078731
vt 0.704546 0.118096
vt 0.727273 0.078731
vt 0.750000 0.118096
vt 0.772727 0.078731
vt 0.795455 0.118096
vt 0.840909 0.118096
vt 0.863636 0.078731
vt 0.886364 0.118096
vt 0.909091 0.078731
vt 0.931818 0.118096
vt 0.954545 0.078731
vt 0.977273 0.118096
vt 0.431819 0.118096
vt 0.386364 0.118096
vt 0.340910 0.118096
vt 0.409091 0.078731
vt 0.363637 0.078730
vt 0.386364 0.039365
vt 0.318182 0.078731
vt 0.340910 0.039365
vt 0.363637 0.000000
vt 0.113637 0.118096
vt 0.136365 0.078731
vt 0.159092 0.118096
vt 0.181819 0.078731
vt 0.204546 0.118096
vt 0.227273 0.078731
vt 0.250001 0.118096
s 1
f 1/1/1 10/2/1 9/3/1
f 2/4/2 12/5/3 18/6/4
f 1/7/1 9/8/1 24/9/1
f 1/10/1 24/11/1 30/12/1
f 1/13/1 30/14/1 19/15/1
f 2/4/2 18/6/4 38/16/5
f 3/17/6 15/18/7 42/19/8
f 4/20/9 27/21/10 46/22/11
f 5/23/12 33/24/13 50/25/14
f 6/26/15 36/27/16 54/28/17
f 2/4/2 38/16/5 43/29/18
f 3/17/6 42/19/8 47/30/19
f 4/20/9 46/22/11 51/31/20
f 5/23/12 50/25/14 55/32/21
f 6/26/15 54/28/17 39/33/22
f 39/33/22 57/34/23 40/35/24
f 39/33/22 54/28/17 57/34/23
f 54/28/17 53/36/25 57/34/23
f 55/32/21 58/37/26 56/38/27
f 55/32/21 50/25/14 58/37/26
f 50/25/14 49/39/28 58/37/26
f 51/31/20 59/40/29 52/41/30
f 51/31/20 46/22/11 59/40/29
f 46/22/11 45/42/31 59/40/29
f 47/30/19 60/43/32 48/44/33
f 47/30/19 42/19/8 60/43/32
f 42/19/8 41/45/34 60/43/32
f 43/29/18 61/46/35 44/47/36
f 43/29/18 38/16/5 61/46/35
f 38/16/5 37/48/37 61/46/35
f 54/28/17 63/49/38 53/36/25
f 53/36/25 63/49/38 62/50/39
f 63/49/38 64/51/40 62/50/39
f 62/50/39 64/51/40 56/38/27
f 64/51/40 55/32/21 56/38/27
f 54/28/17 36/27/16 63/49/38
f 36/27/16 35/52/41 63/49/38
f 63/49/38 35/52/41 64/51/40
f 35/52/41 34/53/42 64/51/40
f 64/51/40 34/53/42 55/32/21
f 34/53/42 5/23/12 55/32/21
f 50/25/14 66/54/43 49/39/28
f 49/39/28 66/54/43 65/55/44
f 66/54/43 67/56/45 65/55/44
f 65/55/44 67/56/45 52/41/30
f 67/56/45 51/31/20 52/41/30
f 50/25/14 33/24/13 66/54/43
f 33/24/13 32/57/46 66/54/43
f 66/54/43 32/57/46 67/56/45
f 32/57/46 31/58/47 67/56/45
f 67/56/45 31/58/47 51/31/20
f 31/58/47 4/20/9 51/31/20
f 46/22/11 69/59/48 45/42/31
f 45/42/31 69/59/48 68/60/49
f 69/59/48 70/61/50 68/60/49
f 68/60/49 70/61/50 48/62/33
f 70/61/50 47/63/19 48/62/33
f 46/22/11 27/21/10 69/59/48
f 27/21/10 26/64/51 69/59/48
f 69/59/48 26/64/51 70/61/50
f 26/64/51 25/65/52 70/61/50
f 70/61/50 25/65/52 47/63/19
f 25/65/52 3/66/6 47/63/19
f 42/19/8 72/67/53 41/45/34
f 41/45/34 72/67/53 71/68/54
f 72/67/53 73/69/55 71/68/54
f 71/68/54 73/69/55 44/47/36
f 73/69/55 43/29/18 44/47/36
f 42/19/8 15/18/7 72/67/53
f 15/18/7 14/70/56 72/67/53
f 72/67/53 14/70/56 73/69/55
f 14/70/56 13/71/57 73/69/55
f 73/69/55 13/71/57 43/29/18
f 13/71/57 2/4/2 43/29/18
f 38/16/5 75/72/58 37/48/37
f 37/48/37 75/72/58 74/73/59
f 75/72/58 76/74/60 74/73/59
f 74/73/59 76/74/60 40/35/24
f 76/74/60 39/33/22 40/35/24
f 38/16/5 18/6/4 75/72/58
f 18/6/4 17/75/61 75/72/58
f 75/72/58 17/75/61 76/74/60
f 17/75/61 16/76/62 76/74/60
f 76/74/60 16/76/62 39/33/22
f 16/76/62 6/26/15 39/33/22
f 21/77/63 36/27/16 6/26/15
f 20/78/1 77/79/64 21/77/63
f 19/15/1 78/80/1 20/78/1
f 21/77/63 77/79/64 36/27/16
f 77/79/64 35/52/41 36/27/16
f 20/78/1 78/80/1 77/79/64
f 78/80/1 79/81/65 77/79/64
f 77/79/64 79/81/65 35/52/41
f 79/81/65 34/53/42 35/52/41
f 19/15/1 30/14/1 78/80/1
f 30/14/1 29/82/1 78/80/1
f 78/80/1 29/82/1 79/81/65
f 29/82/1 28/83/66 79/81/65
f 79/81/65 28/83/66 34/53/42
f 28/83/66 5/23/12 34/53/42
f 28/84/66 33/24/13 5/23/12
f 29/85/1 80/86/67 28/84/66
f 30/12/1 81/87/1 29/85/1
f 28/84/66 80/86/67 33/24/13
f 80/86/67 32/57/46 33/24/13
f 29/85/1 81/87/1 80/86/67
f 81/87/1 82/88/68 80/86/67
f 80/86/67 82/88/68 32/57/46
f 82/88/68 31/58/47 32/57/46
f 30/12/1 24/11/1 81/87/1
f 24/11/1 23/89/1 81/87/1
f 81/87/1 23/89/1 82/88/68
f 23/89/1 22/90/69 82/88/68
f 82/88/68 22/90/69 31/58/47
f 22/90/69 4/20/9 31/58/47
f 22/91/69 27/21/10 4/20/9
f 23/92/1 83/93/70 22/91/69
f 24/9/1 84/94/1 23/92/1
f 22/91/69 83/93/70 27/21/10
f 83/93/70 26/64/51 27/21/10
f 23/92/1 84/94/1 83/93/70
f 84/94/1 85/95/71 83/93/70
f 83/93/70 85/95/71 26/64/51
f 85/95/71 25/65/52 26/64/51
f 24/9/1 9/8/1 84/94/1
f 9/8/1 8/96/1 84/94/1
f 84/94/1 8/96/1 85/95/71
f 8/96/1 7/97/72 85/95/71
f 85/95/71 7/97/72 25/65/52
f 7/97/72 3/66/6 25/65/52
f 16/76/62 21/98/63 6/26/15
f 17/75/61 86/99/73 16/76/62
f 18/6/4 87/100/74 17/75/61
f 16/76/62 86/99/73 21/98/63
f 86/99/73 20/101/1 21/98/63
f 17/75/61 87/100/74 86/99/73
f 87/100/74 88/102/1 86/99/73
f 86/99/73 88/102/1 20/101/1
f 88/102/1 19/103/1 20/101/1
f 18/6/4 12/5/3 87/100/74
f 12/5/3 11/104/1 87/100/74
f 87/100/74 11/104/1 88/102/1
f 11/104/1 10/105/1 88/102/1
f 88/102/1 10/105/1 19/103/1
f 10/105/1 1/106/1 19/103/1
f 7/107/72 15/18/7 3/17/6
f 8/108/1 89/109/75 7/107/72
f 9/3/1 90/110/1 8/108/1
f 7/107/72 89/109/75 15/18/7
f 89/109/75 14/70/56 15/18/7
f 8/108/1 90/110/1 89/109/75
f 90/110/1 91/111/76 89/109/75
f 89/109/75 91/111/76 14/70/56
f 91/111/76 13/71/57 14/70/56
f 9/3/1 10/2/1 90/110/1
f 10/2/1 11/112/1 90/110/1
f 90/110/1 11/112/1 91/111/76
f 11/112/1 12/113/3 91/111/76
f 91/111/76 12/113/3 13/71/57
f 12/113/3 2/4/2 13/71/57
f 92/1/77 100/3/77 101/2/77
f 93/4/78 109/6/79 103/5/80
f 92/7/77 115/9/77 100/8/77
f 92/10/77 121/12/77 115/11/77
f 92/13/77 110/15/77 121/14/77
f 93/4/78 129/16/81 109/6/79
f 94/17/82 133/19/83 106/18/84
f 95/20/85 137/22/86 118/21/87
f 96/23/88 141/25/89 124/24/90
f 97/26/91 145/28/92 127/27/93
f 93/4/78 134/29/94 129/16/81
f 94/17/82 138/30/95 133/19/83
f 95/20/85 142/31/96 137/22/86
f 96/23/88 146/32/97 141/25/89
f 97/26/91 130/33/98 145/28/92
f 130/33/98 131/35/99 148/34/100
f 130/33/98 148/34/100 145/28/92
f 145/28/92 148/34/100 144/36/101
f 146/32/97 147/38/102 149/37/103
f 146/32/97 149/37/103 141/25/89
f 141/25/89 149/37/103 140/39/104
f 142/31/96 143/41/105 150/40/106
f 142/31/96 150/40/106 137/22/86
f 137/22/86 150/40/106 136/42/107
f 138/30/95 139/44/108 151/43/109
f 138/30/95 151/43/109 133/19/83
f 133/19/83 151/43/109 132/45/110
f 134/29/94 135/47/111 152/46/112
f 134/29/94 152/46/112 129/16/81
f 129/16/81 152/46/112 128/48/113
f 145/28/92 144/36/101 154/49/114
f 144/36/101 153/50/115 154/49/114
f 154/49/114 153/50/115 155/51/116
f 153/50/115 147/38/102 155/51/116
f 155/51/116 147/38/102 146/32/97
f 145/28/92 154/49/114 127/27/93
f 127/27/93 154/49/114 126/52/117
f 154/49/114 155/51/116 126/52/117
f 126/52/117 155/51/116 125/53/118
f 155/51/116 146/32/97 125/53/118
f 125/53/118 146/32/97 96/23/88
f 141/25/89 140/39/104 157/54/119
f 140/39/104 156/55/120 157/54/119
f 157/54/119 156/55/120 158/56/121
f 156/55/120 143/41/105 158/56/121
f 158/56/121 143/41/105 142/31/96
f 141/25/89 157/54/119 124/24/90
f 124/24/90 157/54/119 123/57/122
f 157/54/119 158/56/121 123/57/122
f 123/57/122 158/56/121 122/58/123
f 158/56/121 142/31/96 122/58/123
f 122/58/123 142/31/96 95/20/85
f 137/22/86 136/42/107 160/59/124
f 136/42/107 159/60/125 160/59/124
f 160/59/124 159/60/125 161/61/126
f 159/60/125 139/62/108 161/61/126
f 161/61/126 139/62/108 138/63/95
f 137/22/86 160/59/124 118/21/87
f 118/21/87 160/59/124 117/64/127
f 160/59/124 161/61/126 117/64/127
f 117/64/127 161/61/126 116/65/128
f 161/61/126 138/63/95 116/65/128
f 116/65/128 138/63/95 94/66/82
f 133/19/83 132/45/110 163/67/129
f 132/45/110 162/68/130 163/67/129
f 163/67/129 162/68/130 164/69/131
f 162/68/130 135/47/111 164/69/131
f 164/69/131 135/47/111 134/29/94
f 133/19/83 163/67/129 106/18/84
f 106/18/84 163/67/129 105/70/132
f 163/67/129 164/69/131 105/70/132
f 105/70/132 164/69/131 104/71/133
f 164/69/131 134/29/94 104/71/133
f 104/71/133 134/29/94 93/4/78
f 129/16/81 128/48/113 166/72/134
f 128/48/113 165/73/135 166/72/134
f 166/72/134 165/73/135 167/74/136
f 165/73/135 131/35/99 167/74/136
f 167/74/136 131/35/99 130/33/98
f 129/16/81 166/72/134 109/6/79
f 109/6/79 166/72/134 108/75/137
f 166/72/134 167/74/136 108/75/137
f 108/75/137 167/74/136 107/76/138
f 167/74/136 130/33/98 107/76/138
f 107/76/138 130/33/98 97/26/91
f 112/77/139 97/26/91 127/27/93
f 111/78/140 112/77/139 168/79/141
f 110/15/77 111/78/140 169/80/142
f 112/77/139 127/27/93 168/79/141
f 168/79/141 127/27/93 126/52/117
f 111/78/140 168/79/141 169/80/142
f 169/80/142 168/79/141 170/81/143
f 168/79/141 126/52/117 170/81/143
f 170/81/143 126/52/117 125/53/118
f 110/15/77 169/80/142 121/14/77
f 121/14/77 169/80/142 120/82/144
f 169/80/142 170/81/143 120/82/144
f 120/82/144 170/81/143 119/83/145
f 170/81/143 125/53/118 119/83/145
f 119/83/145 125/53/118 96/23/88
f 119/84/145 96/23/88 124/24/90
f 120/85/144 119/84/145 171/86/146
f 121/12/77 120/85/144 172/87/147
f 119/84/145 124/24/90 171/86/146
f 171/86/146 124/24/90 123/57/122
f 120/85/144 171/86/146 172/87/147
f 172/87/147 171/86/146 173/88/148
f 171/86/146 123/57/122 173/88/148
f 173/88/148 123/57/122 122/58/123
f 121/12/77 172/87/147 115/11/77
f 115/11/77 172/87/147 114/89/149
f 172/87/147 173/88/148 114/89/149
f 114/89/149 173/88/148 113/90/150
f 173/88/148 122/58/123 113/90/150
f 113/90/150 122/58/123 95/20/85
f 113/91/150 95/20/85 118/21/87
f 114/92/149 113/91/150 174/93/151
f 115/9/77 114/92/149 175/94/152
f 113/91/150 118/21/87 174/93/151
f 174/93/151 118/21/87 117/64/127
f 114/92/149 174/93/151 175/94/152
f 175/94/152 174/93/151 176/95/153
f 174/93/151 117/64/127 176/95/153
f 176/95/153 117/64/127 116/65/128
f 115/9/77 175/94/152 100/8/77
f 100/8/77 175/94/152 99/96/154
f 175/94/152 176/95/153 99/96/154
f 99/96/154 176/95/153 98/97/155
f 176/95/153 116/65/128 98/97/155
f 98/97/155 116/65/128 94/66/82
f 107/76/138 97/26/91 112/98/139
f 108/75/137 107/76/138 177/99/156
f 109/6/79 108/75/137 178/100/157
f 107/76/138 112/98/139 177/99/156
f 177/99/156 112/98/139 111/101/140
f 108/75/137 177/99/156 178/100/157
f 178/100/157 177/99/156 179/102/158
f 177/99/156 111/101/140 179/102/158
f 179/102/158 111/101/140 110/103/77
f 109/6/79 178/100/157 103/5/80
f 103/5/80 178/100/157 102/104/159
f 178/100/157 179/102/158 102/104/159
f 102/104/159 179/102/158 101/105/77
f 179/102/158 110/103/77 101/105/77
f 101/105/77 110/103/77 92/106/77
f 98/107/155 94/17/82 106/18/84
f 99/108/154 98/107/155 180/109/160
f 100/3/77 99/108/154 181/110/161
f 98/107/155 106/18/84 180/109/160
f 180/109/160 106/18/84 105/70/132
f 99/108/154 180/109/160 181/110/161
f 181/110/161 180/109/160 182/111/162
f 180/109/160 105/70/132 182/111/162
f 182/111/162 105/70/132 104/71/133
f 100/3/77 181/110/161 101/2/77
f 101/2/77 181/110/161 102/112/159
f 181/110/161 182/111/162 102/112/159
f 102/112/159 182/111/162 103/113/80
f 182/111/162 104/71/133 103/113/80
f 103/113/80 104/71/133 93/4/78
f 40/35/24 57/34/23 148/34/100 131/35/99
f 57/34/23 53/36/25 144/36/101 148/34/100
f 56/38/27 58/37/26 149/37/103 147/38/102
f 58/37/26 49/39/28 140/39/104 149/37/103
f 52/41/30 59/40/29 150/40/106 143/41/105
f 59/40/29 45/42/31 136/42/107 150/40/106
f 48/44/33 60/43/32 151/43/109 139/44/108
f 60/43/32 41/45/34 132/45/110 151/43/109
f 44/47/36 61/46/35 152/46/112 135/47/111
f 61/46/35 37/48/37 128/48/113 152/46/112
f 62/50/39 56/38/27 147/38/102 153/50/115
f 53/36/25 62/50/39 153/50/115 144/36/101
f 65/55/44 52/41/30 143/41/105 156/55/120
f 49/39/28 65/55/44 156/55/120 140/39/104
f 68/60/49 48/62/33 139/62/108 159/60/125
f 45/42/31 68/60/49 159/60/125 136/42/107
f 71/68/54 44/47/36 135/47/111 162/68/130
f 41/45/34 71/68/54 162/68/130 132/45/110
f 74/73/59 40/35/24 131/35/99 165/73/135
f 37/48/37 74/73/59 165/73/135 128/48/113
