# Blender 4.0.2
# www.blender.org
mtllib bowl_part3.mtl
o Icosphere.002
v -1.105552 -1.788880 3.402596
v -3.577704 -1.788864 -0.000000
v -0.931288 -3.237272 2.866252
v -3.013768 -3.237272 -0.000000
v -1.935884 -2.009208 2.866260
v -2.752756 -2.102944 1.999988
v -3.324204 -2.009196 0.955412
v -3.804232 -0.000000 1.236052
v -3.826504 -1.004596 0.590472
v -1.744028 -1.004608 3.456752
v -2.351144 -0.000000 3.236068
v -3.236072 -0.000000 2.351132
v -3.447212 -1.105584 1.701296
v -2.683276 -1.105588 2.752764
v -2.552780 -3.237272 1.051456
v -1.788844 -3.237272 2.102916
v -0.985332 -1.682968 3.172968
v -3.322164 -1.682952 -0.043380
v -0.782120 -3.115248 2.663128
v -2.774488 -3.115252 -0.079096
v -1.784104 -1.892776 2.661792
v -2.550916 -1.975840 1.853344
v -3.082840 -1.892764 0.874240
v -3.548264 0.037592 1.128964
v -3.568936 -0.919556 0.520988
v -1.598352 -0.919568 3.233264
v -2.170196 0.037592 3.025720
v -3.011420 0.035920 2.187912
v -3.206604 -1.029308 1.580096
v -2.493656 -1.029312 2.561384
v -2.339228 -3.098116 0.935556
v -1.612628 -3.098116 1.935632
vn -0.9050 -0.3987 0.1482
vn -0.9366 -0.1745 0.3039
vn -0.8869 -0.0962 0.4519
vn -0.7947 -0.1876 0.5773
vn -0.7038 -0.0962 0.7038
vn -0.5785 -0.1745 0.7968
vn -0.8963 -0.3485 0.2744
vn -0.8039 -0.4399 0.4003
vn -0.7544 -0.3611 0.5481
vn -0.6291 -0.4399 0.6409
vn -0.5379 -0.3485 0.7676
vn -0.4206 -0.3987 0.8149
vn -0.9196 -0.3581 0.1614
vn -0.8045 -0.4778 0.3527
vn -0.7926 -0.4673 0.3917
vn -0.6832 -0.5355 0.4964
vn -0.6174 -0.4673 0.6328
vn -0.5841 -0.4778 0.6562
vn -0.4377 -0.3581 0.8247
vn 0.9052 0.3996 -0.1447
vn 0.9374 0.1721 -0.3028
vn 0.8880 0.0941 -0.4500
vn 0.7952 0.1840 -0.5778
vn 0.7024 0.0941 -0.7055
vn 0.5777 0.1721 -0.7979
vn 0.8969 0.3498 -0.2706
vn 0.8036 0.4415 -0.3991
vn 0.7535 0.3639 -0.5475
vn 0.6279 0.4415 -0.6409
vn 0.5345 0.3498 -0.7694
vn 0.4174 0.3996 -0.8162
vn 0.9209 0.3561 -0.1588
vn 0.8042 0.4782 -0.3531
vn 0.7922 0.4689 -0.3906
vn 0.6835 0.5350 -0.4966
vn 0.6163 0.4689 -0.6327
vn 0.5843 0.4782 -0.6557
vn 0.4355 0.3561 -0.8267
vn -0.3558 0.4831 -0.8001
vn 0.8628 -0.0688 0.5008
vn -0.2097 -0.0688 -0.9753
vn -0.3860 0.5027 -0.7735
vn 0.6510 0.4831 0.5856
vn 0.6163 0.5027 0.6061
vn -0.0939 0.9912 0.0931
vn -0.1176 0.9912 0.0605
vn 0.4321 -0.8837 -0.1801
vn 0.4047 -0.8659 -0.2940
vn 0.3048 -0.8837 -0.3553
vt 0.818182 0.157461
vt 0.863636 0.157461
vt 0.840909 0.196826
vt 0.886364 0.196826
vt 0.863636 0.236191
vt 0.909091 0.236191
vt 0.931818 0.196826
vt 0.954545 0.236191
vt 0.977273 0.196826
vt 0.909091 0.157461
vt 0.954545 0.157461
vt 1.000000 0.157461
vt 0.840909 0.118096
vt 0.886364 0.118096
vt 0.931818 0.118096
vt 0.977273 0.118096
s 0
f 2/1/1 7/2/1 9/3/1
f 9/3/2 13/4/2 8/5/2
f 8/5/3 13/4/3 12/6/3
f 13/4/4 14/7/4 12/6/4
f 12/6/5 14/7/5 11/8/5
f 14/7/6 10/9/6 11/8/6
f 9/3/7 7/2/7 13/4/7
f 7/2/8 6/10/8 13/4/8
f 13/4/9 6/10/9 14/7/9
f 6/10/10 5/11/10 14/7/10
f 14/7/11 5/11/11 10/9/11
f 5/11/12 1/12/12 10/9/12
f 4/13/13 7/2/13 2/1/13
f 4/13/14 15/14/14 7/2/14
f 15/14/15 6/10/15 7/2/15
f 15/14/16 16/15/16 6/10/16
f 16/15/17 5/11/17 6/10/17
f 16/15/18 3/16/18 5/11/18
f 3/16/19 1/12/19 5/11/19
f 18/1/20 25/3/20 23/2/20
f 25/3/21 24/5/21 29/4/21
f 24/5/22 28/6/22 29/4/22
f 29/4/23 28/6/23 30/7/23
f 28/6/24 27/8/24 30/7/24
f 30/7/25 27/8/25 26/9/25
f 25/3/26 29/4/26 23/2/26
f 23/2/27 29/4/27 22/10/27
f 29/4/28 30/7/28 22/10/28
f 22/10/29 30/7/29 21/11/29
f 30/7/30 26/9/30 21/11/30
f 21/11/31 26/9/31 17/12/31
f 20/13/32 18/1/32 23/2/32
f 20/13/33 23/2/33 31/14/33
f 31/14/34 23/2/34 22/10/34
f 31/14/35 22/10/35 32/15/35
f 32/15/36 22/10/36 21/11/36
f 32/15/37 21/11/37 19/16/37
f 19/16/38 21/11/38 17/12/38
f 2/1/39 9/3/39 25/3/39 18/1/39
f 1/12/40 3/16/40 19/16/40 17/12/40
f 4/13/41 2/1/41 18/1/41 20/13/41
f 9/3/42 8/5/42 24/5/42 25/3/42
f 10/9/43 1/12/43 17/12/43 26/9/43
f 11/8/44 10/9/44 26/9/44 27/8/44
f 12/6/45 11/8/45 27/8/45 28/6/45
f 8/5/46 12/6/46 28/6/46 24/5/46
f 15/14/47 4/13/47 20/13/47 31/14/47
f 16/15/48 15/14/48 31/14/48 32/15/48
f 3/16/49 16/15/49 32/15/49 19/16/49
