# Blender 4.0.2
# www.blender.org
mtllib bowl_part2.mtl
o Icosphere.001
v 2.894428 -1.788880 2.102900
v 2.894428 -1.788880 -2.102900
v 2.438188 -3.237272 1.771424
v 3.250916 -2.009204 -1.180952
v 3.402592 -2.102944 -0.000000
v 3.250916 -2.009204 1.180952
v 2.438188 -3.237272 -1.771424
v 3.804232 -0.000000 1.236052
v 3.442792 -1.004604 1.771432
v 3.442792 -1.004604 -1.771432
v 3.804232 0.000000 -1.236052
v 4.000000 0.000000 0.000000
v 3.788852 -1.105584 0.649832
v 3.788852 -1.105584 -0.649832
v 2.683268 -3.237272 -0.649828
v 2.683272 -3.237272 0.649832
v 2.662192 -1.682968 1.987792
v 2.662192 -1.682968 -1.987792
v 2.198116 -3.115248 1.694772
v 3.007940 -1.892772 -1.104752
v 3.153104 -1.975836 -0.000000
v 3.007940 -1.892772 1.104752
v 2.198116 -3.115248 -1.694772
v 3.534204 0.037592 1.172236
v 3.193572 -0.919564 1.676252
v 3.193572 -0.919564 -1.676252
v 3.534204 0.037592 -1.172236
v 3.722312 0.035920 0.000000
v 3.522956 -1.029308 0.606456
v 3.522956 -1.029308 -0.606456
v 2.442380 -3.098116 -0.618072
v 2.442380 -3.098116 0.618072
vn 0.8389 -0.3581 0.4099
vn 0.8193 -0.3987 0.4121
vn 0.9363 -0.1745 0.3046
vn 0.9831 -0.0962 0.1557
vn 0.9822 -0.1876 -0.0000
vn 0.9831 -0.0962 -0.1557
vn 0.9363 -0.1745 -0.3046
vn 0.8864 -0.3485 0.3049
vn 0.8857 -0.4399 0.1487
vn 0.9325 -0.3611 -0.0000
vn 0.8857 -0.4399 -0.1487
vn 0.8864 -0.3485 -0.3049
vn 0.8193 -0.3987 -0.4121
vn 0.8389 -0.3581 -0.4099
vn 0.8715 -0.4673 -0.1490
vn 0.8715 -0.4673 0.1490
vn 0.8582 -0.4778 -0.1875
vn 0.8445 -0.5355 -0.0000
vn 0.8582 -0.4778 0.1875
vn -0.8383 0.3561 -0.4128
vn -0.8174 0.3996 -0.4150
vn -0.9364 0.1721 -0.3060
vn -0.9830 0.0941 -0.1579
vn -0.9829 0.1840 -0.0000
vn -0.9830 0.0941 0.1579
vn -0.9364 0.1721 0.3060
vn -0.8847 0.3498 -0.3083
vn -0.8847 0.4415 -0.1494
vn -0.9314 0.3639 -0.0000
vn -0.8847 0.4415 0.1494
vn -0.8847 0.3498 0.3083
vn -0.8174 0.3996 0.4150
vn -0.8383 0.3561 0.4128
vn -0.8705 0.4689 0.1496
vn -0.8705 0.4689 -0.1496
vn -0.8581 0.4782 0.1871
vn -0.8448 0.5350 -0.0000
vn -0.8581 0.4782 -0.1871
vn -0.4036 -0.0688 0.9123
vn -0.4036 -0.0688 -0.9123
vn -0.1824 0.4831 0.8564
vn -0.1424 0.5027 0.8527
vn -0.1824 0.4831 -0.8564
vn -0.1424 0.5027 -0.8527
vn 0.1307 0.9912 -0.0201
vn 0.1307 0.9912 0.0201
vn -0.4555 -0.8837 0.1083
vn -0.5002 -0.8659 -0.0000
vn -0.4554 -0.8837 -0.1083
vt 0.272728 0.157461
vt 0.295455 0.118096
vt 0.318182 0.157461
vt 0.295455 0.196826
vt 0.340910 0.196826
vt 0.318182 0.236191
vt 0.363637 0.236191
vt 0.386364 0.196826
vt 0.409091 0.236191
vt 0.431819 0.196826
vt 0.363637 0.157461
vt 0.409092 0.157461
vt 0.454546 0.157461
vt 0.431819 0.118096
vt 0.386364 0.118096
vt 0.340910 0.118096
s 0
f 1/1/1 3/2/1 6/3/1
f 1/1/2 6/3/2 9/4/2
f 9/4/3 13/5/3 8/6/3
f 8/6/4 13/5/4 12/7/4
f 13/5/5 14/8/5 12/7/5
f 12/7/6 14/8/6 11/9/6
f 14/8/7 10/10/7 11/9/7
f 9/4/8 6/3/8 13/5/8
f 6/3/9 5/11/9 13/5/9
f 13/5/10 5/11/10 14/8/10
f 5/11/11 4/12/11 14/8/11
f 14/8/12 4/12/12 10/10/12
f 4/12/13 2/13/13 10/10/13
f 4/12/14 7/14/14 2/13/14
f 5/11/15 15/15/15 4/12/15
f 6/3/16 16/16/16 5/11/16
f 4/12/17 15/15/17 7/14/17
f 5/11/18 16/16/18 15/15/18
f 6/3/19 3/2/19 16/16/19
f 17/1/20 22/3/20 19/2/20
f 17/1/21 25/4/21 22/3/21
f 25/4/22 24/6/22 29/5/22
f 24/6/23 28/7/23 29/5/23
f 29/5/24 28/7/24 30/8/24
f 28/7/25 27/9/25 30/8/25
f 30/8/26 27/9/26 26/10/26
f 25/4/27 29/5/27 22/3/27
f 22/3/28 29/5/28 21/11/28
f 29/5/29 30/8/29 21/11/29
f 21/11/30 30/8/30 20/12/30
f 30/8/31 26/10/31 20/12/31
f 20/12/32 26/10/32 18/13/32
f 20/12/33 18/13/33 23/14/33
f 21/11/34 20/12/34 31/15/34
f 22/3/35 21/11/35 32/16/35
f 20/12/36 23/14/36 31/15/36
f 21/11/37 31/15/37 32/16/37
f 22/3/38 32/16/38 19/2/38
f 3/2/39 1/1/39 17/1/39 19/2/39
f 2/13/40 7/14/40 23/14/40 18/13/40
f 1/1/41 9/4/41 25/4/41 17/1/41
f 9/4/42 8/6/42 24/6/42 25/4/42
f 10/10/43 2/13/43 18/13/43 26/10/43
f 11/9/44 10/10/44 26/10/44 27/9/44
f 12/7/45 11/9/45 27/9/45 28/7/45
f 8/6/46 12/7/46 28/7/46 24/6/46
f 7/14/47 15/15/47 31/15/47 23/14/47
f 15/15/48 16/16/48 32/16/48 31/15/48
f 16/16/49 3/2/49 19/2/49 32/16/49
